<svg width="16" height="16" viewBox="0 0 16 16" fill="none" xmlns="http://www.w3.org/2000/svg">
<path fill-rule="evenodd" clip-rule="evenodd" d="M16 8C16 12.4183 12.4183 16 8 16C3.58172 16 0 12.4183 0 8C0 3.58172 3.58172 0 8 0C12.4183 0 16 3.58172 16 8ZM8.28667 5.90596C7.50855 6.22961 5.95341 6.89947 3.62125 7.91556C3.24254 8.06616 3.04416 8.21349 3.0261 8.35755C2.99558 8.60101 3.30046 8.69688 3.71563 8.82743C3.77211 8.84519 3.83062 8.86359 3.89061 8.88309C4.29908 9.01586 4.84854 9.1712 5.13418 9.17737C5.39328 9.18297 5.68247 9.07615 6.00175 8.85691C8.18076 7.38601 9.30557 6.64255 9.37619 6.62652C9.42601 6.61521 9.49505 6.601 9.54183 6.64257C9.58861 6.68415 9.58401 6.76289 9.57905 6.78401C9.54885 6.91277 8.35207 8.02541 7.73273 8.6012C7.53966 8.7807 7.4027 8.90803 7.3747 8.9371C7.31199 9.00224 7.24807 9.06386 7.18664 9.12308C6.80716 9.4889 6.52259 9.76323 7.20239 10.2112C7.52907 10.4265 7.79048 10.6045 8.05127 10.7821C8.33609 10.9761 8.62017 11.1695 8.98773 11.4105C9.08137 11.4718 9.1708 11.5356 9.25791 11.5977C9.58937 11.834 9.88715 12.0463 10.255 12.0124C10.4688 11.9928 10.6896 11.7918 10.8018 11.1923C11.0668 9.77544 11.5877 6.70565 11.7081 5.44066C11.7187 5.32983 11.7054 5.18799 11.6948 5.12572C11.6841 5.06346 11.6618 4.97475 11.5809 4.90907C11.485 4.8313 11.3371 4.8149 11.2709 4.81606C10.97 4.82136 10.5084 4.98189 8.28667 5.90596Z" fill="white"/>
</svg>
