<svg width="14" height="11" viewBox="0 0 14 11" fill="none" xmlns="http://www.w3.org/2000/svg">
<path d="M12.5667 2.73842C12.5753 2.85776 12.5753 2.97711 12.5753 3.09755C12.5753 6.76747 9.68596 11 4.40276 11V10.9978C2.84209 11 1.31383 10.5677 0 9.75268C0.226935 9.77908 0.455007 9.79228 0.683648 9.79283C1.97701 9.79393 3.23339 9.3743 4.2509 8.6016C3.02182 8.57905 1.94402 7.80415 1.5675 6.67287C1.99805 6.75317 2.44168 6.73667 2.86427 6.62503C1.52427 6.36324 0.560228 5.22481 0.560228 3.9027C0.560228 3.8906 0.560228 3.87905 0.560228 3.8675C0.959496 4.08254 1.40654 4.20188 1.86382 4.21508C0.601747 3.39948 0.212716 1.77598 0.974853 0.506662C2.43315 2.2418 4.58477 3.29664 6.8945 3.40828C6.66301 2.44364 6.97924 1.4328 7.72545 0.754697C8.88231 -0.296837 10.7018 -0.24294 11.7892 0.875139C12.4325 0.752497 13.049 0.524261 13.6132 0.200882C13.3988 0.843791 12.9501 1.38991 12.3506 1.73693C12.9199 1.67204 13.4762 1.52465 14 1.29971C13.6144 1.85848 13.1287 2.3452 12.5667 2.73842Z" fill="white"/>
</svg>
