<svg width="121" height="19" viewBox="0 0 121 19" fill="none" xmlns="http://www.w3.org/2000/svg">
<path d="M11.3433 0.0213107C13.4413 -0.113693 15.5748 0.305529 17.4594 1.24345C20.2402 2.6077 22.4519 5.07329 23.4974 7.97943C23.9596 9.26552 24.2085 10.6227 24.2085 11.9869V17.0531C24.2085 17.2592 24.2156 17.4723 24.1659 17.6713C24.0521 18.1829 23.6894 18.6305 23.2058 18.8508C22.8715 19.0071 22.4875 19.0284 22.1319 18.9716C21.3567 18.8295 20.7593 18.1047 20.7522 17.3231C20.7451 15.7528 20.7522 14.1825 20.7522 12.6051C20.7664 12.1574 20.7664 11.6814 20.5246 11.2906C20.1335 10.5658 19.1805 10.2176 18.4195 10.5303C17.7724 10.7577 17.303 11.4114 17.2959 12.1006C17.2888 13.6993 17.2959 15.2909 17.2959 16.8826C17.2959 17.181 17.3101 17.4865 17.2248 17.7708C17.0612 18.3321 16.5918 18.7868 16.03 18.9432C15.2903 19.1492 14.444 18.8224 14.0671 18.1402C13.8111 17.7281 13.8324 17.2307 13.8395 16.776C13.8324 15.1915 13.8467 13.607 13.8324 12.0224C13.8182 11.2195 13.1568 10.4948 12.3532 10.3882C11.834 10.31 11.2864 10.4805 10.9095 10.85C10.5681 11.1698 10.3761 11.6316 10.3761 12.1006V16.7191C10.369 17.1099 10.4188 17.5078 10.2694 17.8702C10.0418 18.531 9.37334 19.0142 8.66927 18.9929C7.95098 19.0355 7.24691 18.5381 7.01934 17.8631C6.89132 17.5292 6.91977 17.1739 6.91977 16.8186C6.91977 15.227 6.92688 13.6354 6.91977 12.0366C6.91266 11.2479 6.30105 10.5303 5.52586 10.3882C4.82891 10.239 4.05372 10.5942 3.69813 11.2266C3.54878 11.4895 3.47055 11.7951 3.47055 12.0935V17.2663C3.47767 17.7708 3.24298 18.2681 2.85894 18.5879C2.27577 19.0995 1.3299 19.1279 0.711179 18.6589C0.263136 18.3534 0 17.8347 0 17.2947V12.058C0.00711179 10.0755 0.504937 8.10022 1.45081 6.35938C2.22599 4.93829 3.28565 3.66641 4.55866 2.65744C6.47884 1.10134 8.88263 0.170525 11.3433 0.0213107Z" fill="#232323"/>
<path d="M58.4802 6.09646C57.5983 6.09646 56.752 6.09646 55.8559 6.09646C55.9484 4.25615 56.3324 2.60058 58.0179 1.55607C59.6892 0.518676 61.5311 0.284196 63.4442 0.440516C64.4825 0.525782 65.4924 0.746051 66.4454 1.18659C68.1167 1.95398 68.9416 3.26849 68.9416 5.09459C68.9488 8.33468 68.9416 11.5819 68.9416 14.822C68.9416 16.0157 69.1834 16.236 70.3782 16.1152C70.5062 16.101 70.6342 16.0796 70.7694 16.0583C70.7836 16.1223 70.7978 16.172 70.7978 16.2217C70.7978 16.8683 70.7978 17.5149 70.7978 18.19C69.8448 18.5097 68.8919 18.6092 67.9318 18.3534C67.2348 18.1615 66.7868 17.657 66.545 16.9891C66.4241 16.6481 66.3529 16.2928 66.2392 15.8949C66.1396 16.0086 66.0543 16.1152 65.9547 16.2075C63.8852 18.3036 61.4174 19.1847 58.5158 18.4529C56.4604 17.9342 55.0381 16.0512 54.9883 13.9267C54.9741 13.2446 55.031 12.5482 55.1945 11.8874C55.5715 10.3526 56.6596 9.42892 58.0464 8.81075C59.0207 8.37021 60.059 8.24231 61.1044 8.11441C62.3277 7.95809 63.5509 7.80888 64.7741 7.63835C65.6062 7.52466 66.0258 7.08412 66.1538 6.24568C66.417 4.583 65.6773 3.46034 64.0487 3.06243C63.0815 2.82795 62.093 2.78532 61.1116 2.97006C59.6607 3.23296 58.85 4.05009 58.5655 5.4925C58.5513 5.67724 58.5229 5.86909 58.4802 6.09646ZM66.2107 9.31524C65.0017 9.96894 63.8283 10.1253 62.6477 10.3029C61.6521 10.4592 60.6422 10.6013 59.6892 10.914C58.4091 11.3332 57.8401 12.3848 57.9468 13.7917C58.0393 14.9641 58.8429 15.9091 60.1017 16.1152C62.0574 16.442 63.7927 15.902 65.1582 14.4525C65.5564 14.0333 65.8765 13.4222 65.9618 12.8538C66.1396 11.724 66.1325 10.5658 66.2107 9.31524Z" fill="#232323"/>
<path d="M103.569 12.6972C103.505 12.9815 103.469 13.2231 103.398 13.4504C102.26 16.8895 99.9776 18.3745 97.1968 18.68C92.375 19.213 89.6228 16.0581 88.9116 12.7115C88.3498 10.054 88.428 7.41078 89.5943 4.90966C90.6967 2.55065 92.4746 0.994554 95.1202 0.5327C98.2778 -0.0215263 102.765 1.53457 103.519 6.47997C103.711 7.75185 103.754 9.05215 103.875 10.3951C99.7286 10.3951 95.6963 10.3951 91.6212 10.3951C91.7279 12.207 92.0124 13.8981 93.3351 15.2197C93.8828 15.7668 94.5868 16.0297 95.3478 16.1576C97.8369 16.591 99.878 15.4044 100.689 13.0241C100.774 12.7683 100.888 12.6901 101.151 12.6972C101.94 12.7115 102.73 12.6972 103.569 12.6972ZM91.7208 8.06449C94.7859 8.06449 97.8298 8.06449 100.895 8.06449C100.795 7.00577 100.603 6.01101 100.113 5.0873C99.6362 4.19201 98.925 3.55252 97.9578 3.22567C94.786 2.13853 91.5074 4.66808 91.7208 8.06449Z" fill="#232323"/>
<path d="M110.169 18.1046C109.216 18.1046 108.313 18.1046 107.381 18.1046C107.381 12.342 107.381 6.59371 107.381 0.824075C108.256 0.824075 109.123 0.824075 110.026 0.824075C110.026 1.60568 110.026 2.35885 110.026 3.24704C110.226 3.01966 110.354 2.87755 110.474 2.74255C112.366 0.582489 114.756 0.0140524 117.458 0.681966C119.343 1.14382 120.388 2.47254 120.744 4.33417C120.893 5.09446 120.979 5.87606 120.986 6.65055C121.014 10.3596 121 14.0687 121 17.7777C121 17.8772 120.986 17.9838 120.979 18.1046C120.04 18.1046 119.108 18.1046 118.127 18.1046C118.127 17.934 118.127 17.7848 118.127 17.6356C118.127 14.1752 118.148 10.7078 118.113 7.24741C118.105 6.48002 117.999 5.69132 117.778 4.95945C117.416 3.74442 116.448 3.09782 115.175 3.05519C112.864 2.97703 111.022 4.19917 110.46 6.26686C110.261 7.00583 110.197 7.80164 110.19 8.57613C110.162 11.5817 110.176 14.5945 110.169 17.6001C110.169 17.7493 110.169 17.9056 110.169 18.1046Z" fill="#232323"/>
<path d="M73.4932 0.82432C74.4106 0.82432 75.2782 0.82432 76.1814 0.82432C76.1814 3.23307 76.1814 5.63472 76.1814 8.14294C76.3521 7.97952 76.4517 7.89425 76.5512 7.80188C78.7488 5.56366 80.9534 3.31834 83.1439 1.07301C83.3288 0.881164 83.5137 0.795898 83.7839 0.795898C84.8151 0.810109 85.8534 0.803004 86.9913 0.803004C86.8349 0.96643 86.7495 1.06591 86.6571 1.16538C84.7227 3.10517 82.7954 5.04496 80.8468 6.97765C80.6263 7.19081 80.6192 7.33292 80.7756 7.58872C82.8878 10.9496 84.9858 14.3105 87.0909 17.6785C87.1691 17.7993 87.2403 17.9201 87.3398 18.0977C87.1976 18.1119 87.0909 18.1261 86.9842 18.1261C86.0241 18.1261 85.064 18.119 84.104 18.1332C83.8408 18.1403 83.7128 18.0409 83.5848 17.8277C81.9775 15.1205 80.356 12.4204 78.7417 9.71325C78.6705 9.59246 78.5923 9.47877 78.4999 9.33666C77.7531 10.0756 77.0277 10.7933 76.3094 11.5323C76.217 11.6246 76.1956 11.8094 76.1956 11.9586C76.1885 13.8557 76.1885 15.7458 76.1885 17.6429C76.1885 17.7851 76.1885 17.9272 76.1885 18.1332C75.6551 18.1332 75.1431 18.1403 74.631 18.1332C74.2612 18.1261 73.7705 18.2256 73.5572 18.0337C73.3723 17.8632 73.4861 17.3516 73.4861 16.9892C73.4861 11.7738 73.4861 6.55843 73.4861 1.34302C73.4932 1.17249 73.4932 1.00906 73.4932 0.82432Z" fill="#232323"/>
<path d="M42.5214 0.802652C40.338 2.96271 38.2187 5.07303 36.0852 7.18336C38.3752 10.8498 40.6154 14.438 42.9054 18.1044C42.7205 18.1116 42.6067 18.1258 42.4858 18.1258C41.5542 18.1258 40.6154 18.1187 39.6838 18.1329C39.4135 18.14 39.2642 18.0405 39.129 17.8131C37.5218 15.1059 35.9003 12.4059 34.2859 9.69869C34.2219 9.585 34.1508 9.47842 34.0441 9.30789C33.6316 9.73422 33.276 10.189 32.828 10.5229C31.9248 11.205 31.6545 12.0577 31.7257 13.1733C31.8181 14.6441 31.747 16.1291 31.747 17.6071C31.747 17.7634 31.747 17.9126 31.747 18.0902C30.8438 18.0902 29.9762 18.0902 29.0801 18.0902C29.0801 12.3419 29.0801 6.5936 29.0801 0.816863C29.9548 0.816863 30.8154 0.816863 31.7328 0.816863C31.7328 3.22561 31.7328 5.62726 31.7328 8.02891C31.7897 8.06443 31.8466 8.10707 31.9035 8.14259C31.9746 8.0218 32.0172 7.87259 32.1097 7.78021C34.293 5.54199 36.4906 3.31799 38.6739 1.07977C38.8659 0.880812 39.0579 0.781336 39.3495 0.788441C40.2598 0.809758 41.1701 0.795547 42.0733 0.795547C42.2013 0.802652 42.3293 0.802652 42.5214 0.802652Z" fill="#232323"/>
<path d="M47.8481 3.66649C49.1994 1.69117 50.6359 0.0427044 53.3029 0.51877C53.3029 1.52775 53.3029 2.52962 53.3029 3.47464C52.5917 3.52438 51.8947 3.50306 51.2333 3.63807C49.5905 3.97913 48.3246 5.47838 48.0757 7.28317C48.0259 7.63844 48.0046 8.00792 48.0046 8.3703C47.9975 11.4541 48.0046 14.5449 48.0046 17.6287C48.0046 17.7779 48.0046 17.9342 48.0046 18.1048C47.0587 18.1048 46.1626 18.1048 45.2239 18.1048C45.2239 12.3494 45.2239 6.60815 45.2239 0.83141C46.0844 0.83141 46.9449 0.83141 47.8552 0.83141C47.8481 1.75512 47.8481 2.66462 47.8481 3.66649Z" fill="#232323"/>
</svg>
