<svg width="92" height="24" viewBox="0 0 92 24" fill="none" xmlns="http://www.w3.org/2000/svg">
<path d="M20.9001 3.35596C20.5538 3.0104 20.3807 2.58352 20.3807 2.07534C20.3807 1.56715 20.5538 1.14028 20.9001 0.794716C21.2464 0.44915 21.6741 0.276367 22.1834 0.276367C22.6824 0.276367 23.1 0.44915 23.4463 0.794716C23.7925 1.14028 23.9657 1.56715 23.9657 2.07534C23.9657 2.58352 23.7925 3.0104 23.4463 3.35596C23.1 3.70153 22.6824 3.87431 22.1834 3.87431C21.6741 3.87431 21.2464 3.70153 20.9001 3.35596Z" fill="#232323"/>
<path d="M23.5676 5.67383H20.7465V19.283H23.5676V5.67383Z" fill="#232323"/>
<path d="M39.5481 5.67383V19.283H36.727V17.6771C36.2789 18.2361 35.6984 18.6732 34.9854 18.9984C34.2725 19.3237 33.5087 19.4761 32.6939 19.4761C31.6245 19.4761 30.657 19.2525 29.8116 18.8053C28.9663 18.3581 28.2941 17.6975 27.8053 16.8336C27.3164 15.9595 27.072 14.9025 27.072 13.6726V5.67383H29.8727V13.2559C29.8727 14.4756 30.1783 15.4106 30.7894 16.0611C31.4004 16.7116 32.2356 17.0368 33.2846 17.0368C34.3438 17.0368 35.1789 16.7116 35.8002 16.0611C36.4215 15.4106 36.727 14.4756 36.727 13.2559V5.67383H39.5481Z" fill="#232323"/>
<path d="M52.9916 6.12051C53.8369 6.56771 54.5091 7.22835 54.9877 8.09227C55.4664 8.96634 55.7007 10.0234 55.7007 11.2532V19.2825H52.8999V11.6699C52.8999 10.4502 52.5944 9.51518 51.9833 8.86471C51.3722 8.21423 50.5371 7.88899 49.488 7.88899C48.4288 7.88899 47.5937 8.21423 46.9724 8.86471C46.3512 9.51518 46.0456 10.4502 46.0456 11.6699V19.2825H43.2245V5.67331H46.0456V7.22835C46.5039 6.66935 47.0947 6.23231 47.8178 5.91724C48.5307 5.60216 49.2945 5.44971 50.1093 5.44971C51.1787 5.44971 52.1462 5.67331 52.9916 6.12051Z" fill="#232323"/>
<path d="M62.3505 7.97074V15.5122C62.3505 16.0204 62.4727 16.3863 62.7069 16.6099C62.9412 16.8335 63.3587 16.9453 63.9291 16.9453H65.6605V19.2931H63.43C62.1569 19.2931 61.1894 18.9983 60.507 18.4088C59.8348 17.8194 59.4886 16.8538 59.4886 15.5224V7.99107H57.8794V5.69408H59.4886V2.30957H62.3301V5.69408H65.6503V7.99107H62.3505V7.97074Z" fill="#232323"/>
<path d="M80.4086 13.5295H69.9795C70.061 14.617 70.4684 15.4911 71.1915 16.1518C71.9146 16.8124 72.8108 17.1376 73.8599 17.1376C75.3774 17.1376 76.4468 16.5075 77.0782 15.237H80.1234C79.7058 16.4872 78.9624 17.5137 77.8828 18.3166C76.8032 19.1196 75.4589 19.5159 73.8599 19.5159C72.5562 19.5159 71.385 19.2212 70.3563 18.6419C69.3277 18.0625 68.5129 17.2291 67.9324 16.1721C67.3417 15.1049 67.0565 13.8751 67.0565 12.4827C67.0565 11.0801 67.3417 9.85027 67.912 8.79325C68.4824 7.72606 69.2768 6.91297 70.3156 6.33364C71.3443 5.75431 72.5359 5.46973 73.87 5.46973C75.1533 5.46973 76.3042 5.75431 77.3125 6.31331C78.3207 6.87231 79.105 7.65492 79.6651 8.67129C80.2253 9.68766 80.5104 10.8463 80.5104 12.1676C80.5002 12.6555 80.4697 13.123 80.4086 13.5295ZM77.5569 11.263C77.5365 10.2263 77.1699 9.39291 76.4468 8.77292C75.7236 8.14278 74.8172 7.83786 73.7478 7.83786C72.7701 7.83786 71.9451 8.14278 71.2526 8.76276C70.56 9.38275 70.1425 10.2162 70.0101 11.2732H77.5569V11.263Z" fill="#232323"/>
<path d="M87.5901 12.4955L92 19.3865H88.802L85.8587 14.7722L83.0884 19.3865H80.1451L84.555 12.6887L80.1451 5.77734H83.3431L86.2864 10.3917L89.0566 5.77734H92L87.5901 12.4955Z" fill="#232323"/>
<path d="M4.48158 18.3374C3.1372 17.5853 2.06782 16.5384 1.2836 15.1968C0.499382 13.8552 0.112366 12.3408 0.112366 10.6638C0.112366 8.98683 0.499382 7.47244 1.2836 6.141C2.06782 4.80955 3.12702 3.7627 4.48158 3.02075C5.82595 2.26864 7.30272 1.89258 8.90171 1.89258C10.5211 1.89258 11.9978 2.26864 13.3422 3.02075C14.6866 3.77286 15.7458 4.80955 16.5198 6.141C17.2938 7.47244 17.6809 8.97666 17.6809 10.6638C17.6809 12.3408 17.2938 13.8552 16.5198 15.1968C15.7458 16.5384 14.6866 17.5853 13.3422 18.3374C11.9978 19.0895 10.5211 19.4656 8.90171 19.4656C7.30272 19.4554 5.82595 19.0895 4.48158 18.3374ZM11.9469 16.2335C12.833 15.7152 13.5357 14.9732 14.0348 14.0077C14.5338 13.0421 14.7884 11.9241 14.7884 10.6638C14.7884 9.39338 14.5338 8.28554 14.0348 7.33015C13.5357 6.37476 12.833 5.64298 11.9469 5.13479C11.0609 4.62661 10.0424 4.37252 8.90171 4.37252C7.76103 4.37252 6.75275 4.62661 5.8565 5.13479C4.97044 5.64298 4.2677 6.37476 3.76865 7.33015C3.2696 8.28554 3.01499 9.39338 3.01499 10.6638C3.01499 11.9343 3.2696 13.0523 3.76865 14.0077C4.2677 14.9732 4.97044 15.7152 5.8565 16.2335C6.74257 16.7519 7.76103 17.0161 8.90171 17.0161C10.0424 17.0161 11.0609 16.7519 11.9469 16.2335Z" fill="#232323"/>
<path d="M8.90244 18.897L15.6956 20.5232V23.2369L8.90244 21.6107V18.897Z" fill="#232323"/>
</svg>
