<svg width="101" height="28" viewBox="0 0 101 28" fill="none" xmlns="http://www.w3.org/2000/svg">
<g clip-path="url(#clip0_812_12434)">
<path d="M40.7726 0H13.5909V28H40.7726V0Z" fill="white"/>
<path d="M54.3635 14L40.7726 0V28L54.3635 14Z" fill="#232323"/>
<path d="M27.1818 14L40.7726 0H13.5909L27.1818 14Z" fill="#232323"/>
<path d="M0 14L13.5909 28V0L0 14Z" fill="#232323"/>
<path d="M27.1818 14L13.5909 28H40.7726L27.1818 14Z" fill="#232323"/>
<path d="M66.2923 14.8519H61.3656V19.8627H58.8938V8.1377H61.3656V12.9385H66.2923V8.1377H68.7642V19.8627H66.2923V14.8519Z" fill="#232323"/>
<path d="M74.6847 20.0726C72.2299 20.0726 70.2139 19.0664 70.1544 16.2605H72.6263C72.6574 17.5089 73.3653 18.2555 74.7215 18.2555C75.7295 18.2555 76.8621 17.7364 76.8621 16.5697C76.8621 15.6626 76.0919 15.3709 74.815 14.9976L73.9967 14.7555C72.2015 14.2218 70.4234 13.5072 70.4234 11.3984C70.4234 8.77344 72.7848 7.89844 74.9537 7.89844C77.1735 7.89844 79.0791 8.69177 79.0932 11.2876H76.6214C76.5251 10.2289 75.9277 9.6251 74.7498 9.6251C73.8381 9.6251 72.9236 10.1268 72.9236 11.1651C72.9236 12.0255 73.6796 12.2851 75.285 12.8043L76.2307 13.1134C78.1815 13.7464 79.4104 14.4434 79.4104 16.3889C79.4217 19.0518 76.9187 20.0726 74.6847 20.0726Z" fill="#232323"/>
<path d="M80.8147 8.1377H84.7787C86.0217 8.1377 86.5257 8.16978 87.0155 8.28353C88.4001 8.60728 89.4392 9.53186 89.4392 11.1039C89.4392 12.6119 88.5105 13.3906 87.1741 13.7464C88.7172 14.0381 89.8498 14.8489 89.8498 16.5844C89.8498 19.2444 87.3015 19.8598 85.2997 19.8598H80.8147V8.1377ZM84.7787 13.0202C85.866 13.0202 86.9674 12.7927 86.9674 11.4306C86.9674 10.2144 85.9283 9.89061 84.9373 9.89061H83.2044V13.0202H84.7787ZM85.0137 18.1127C86.1633 18.1127 87.2958 17.8356 87.2958 16.4094C87.2958 14.9831 86.319 14.6914 85.1553 14.6914H83.2044V18.1127H85.0137Z" fill="#232323"/>
<path d="M96.2687 20.0727C92.5878 20.0727 90.9484 17.6547 90.9484 14.0877C90.9484 10.5206 92.7747 7.91016 96.3961 7.91016C98.6613 7.91016 100.867 8.94849 100.926 11.6085H98.3781C98.2507 10.4418 97.4975 9.82349 96.3961 9.82349C94.1763 9.82349 93.4995 12.2881 93.4995 14.1693C93.4995 16.0506 94.1763 18.2089 96.331 18.2089C97.4494 18.2089 98.2677 17.5935 98.4404 16.4093H101.006C100.717 19.0693 98.6386 20.0727 96.2687 20.0727Z" fill="#232323"/>
</g>
<defs>
<clipPath id="clip0_812_12434">
<rect width="101" height="28" fill="white"/>
</clipPath>
</defs>
</svg>
