<svg width="138" height="20" viewBox="0 0 138 20" fill="none" xmlns="http://www.w3.org/2000/svg">
<path d="M22.44 14.6562C18.0506 12.9435 16.4292 10.8332 16.1517 8.26416H11.2506V13.9528C13.6673 17.0845 17.7855 18.9685 19.5424 19.519L22.44 14.6562Z" fill="#232323"/>
<path d="M0.0613403 14.6562C4.45075 12.9435 6.07213 10.8332 6.34955 8.26416H11.2506V13.9528C8.834 17.0845 4.71584 18.9685 2.95885 19.519L0.0613403 14.6562Z" fill="#232323"/>
<path d="M22.5019 1.04639H0V8.26421H22.5019V1.04639Z" fill="#232323"/>
<path d="M37.562 15.3844L35.3787 12.2552H35.2493H32.9688V15.3844H30.3488V4.15146H35.2493C36.2521 4.15146 37.12 4.31728 37.8532 4.64892C38.5971 4.98056 39.1686 5.45127 39.5675 6.06106C39.9665 6.67085 40.166 7.39296 40.166 8.22739C40.166 9.06185 39.9611 9.784 39.5513 10.3938C39.1525 10.9928 38.581 11.4528 37.837 11.7738L40.3762 15.3844H37.562ZM37.5135 8.22739C37.5135 7.59622 37.3087 7.11482 36.8989 6.78317C36.4892 6.44084 35.8909 6.26967 35.1037 6.26967H32.9688V10.1852H35.1037C35.8909 10.1852 36.4892 10.014 36.8989 9.67162C37.3087 9.32931 37.5135 8.84792 37.5135 8.22739ZM50.5872 11.0998C50.5872 11.1319 50.571 11.3566 50.5387 11.7738H43.9562C44.0748 12.3087 44.3551 12.7313 44.7972 13.0415C45.2393 13.3518 45.7892 13.5068 46.4468 13.5068C46.8997 13.5068 47.2986 13.4427 47.6436 13.3143C47.9995 13.1752 48.3284 12.9613 48.6303 12.6725L49.9726 14.1167C49.1532 15.0474 47.9564 15.5128 46.3822 15.5128C45.401 15.5128 44.533 15.3255 43.7782 14.9511C43.0235 14.566 42.4413 14.0365 42.0315 13.3625C41.6218 12.6885 41.417 11.9235 41.417 11.0678C41.417 10.2226 41.6165 9.463 42.0154 8.78908C42.4251 8.10439 42.9804 7.57483 43.6813 7.20039C44.3928 6.81527 45.1853 6.6227 46.0587 6.6227C46.9105 6.6227 47.6814 6.80457 48.3715 7.1683C49.0616 7.53204 49.6006 8.05623 49.9888 8.74092C50.3878 9.41492 50.5872 10.2012 50.5872 11.0998ZM46.0749 8.51623C45.5034 8.51623 45.0236 8.67669 44.6355 8.99769C44.2473 9.31862 44.0101 9.75723 43.9238 10.3135H48.2098C48.1235 9.76792 47.8863 9.33462 47.4981 9.01369C47.1099 8.68208 46.6355 8.51623 46.0749 8.51623ZM55.5396 6.6227C56.8874 6.6227 57.9225 6.94365 58.6449 7.58552C59.3673 8.21669 59.7285 9.17416 59.7285 10.4579V15.3844H57.3672V14.3092C56.8928 15.1116 56.0087 15.5128 54.7148 15.5128C54.0463 15.5128 53.4641 15.4005 52.9681 15.1758C52.4829 14.9511 52.1109 14.6408 51.8521 14.2451C51.5934 13.8492 51.464 13.3999 51.464 12.8971C51.464 12.0948 51.7659 11.4635 52.3697 11.0035C52.9842 10.5435 53.9277 10.3135 55.2 10.3135H57.2055C57.2055 9.76792 57.0383 9.35069 56.7041 9.06185C56.3699 8.76231 55.8685 8.61254 55.2 8.61254C54.7364 8.61254 54.2781 8.68739 53.8253 8.83723C53.3832 8.97623 53.0058 9.16885 52.6931 9.41493L51.7874 7.66576C52.2618 7.33412 52.8279 7.07737 53.4856 6.8955C54.1541 6.71364 54.8388 6.6227 55.5396 6.6227ZM55.3455 13.8278C55.7768 13.8278 56.1596 13.7315 56.4939 13.539C56.8281 13.3357 57.0653 13.0415 57.2055 12.6564V11.7738H55.4749C54.4398 11.7738 53.9223 12.1108 53.9223 12.7848C53.9223 13.1057 54.0463 13.3625 54.2943 13.555C54.553 13.7369 54.9035 13.8278 55.3455 13.8278ZM66.3118 15.5128C65.3845 15.5128 64.5489 15.3255 63.8049 14.9511C63.0717 14.566 62.4948 14.0365 62.0744 13.3625C61.6647 12.6885 61.4598 11.9235 61.4598 11.0678C61.4598 10.2119 61.6647 9.447 62.0744 8.773C62.4948 8.099 63.0717 7.57483 63.8049 7.20039C64.5489 6.81527 65.3845 6.6227 66.3118 6.6227C67.2282 6.6227 68.0262 6.81527 68.7054 7.20039C69.3955 7.57483 69.8968 8.11508 70.2095 8.82116L68.2525 9.86423C67.7997 9.07254 67.1474 8.67669 66.2956 8.67669C65.6379 8.67669 65.0934 8.89069 64.6621 9.31862C64.2308 9.74654 64.0152 10.3295 64.0152 11.0678C64.0152 11.8059 64.2308 12.3889 64.6621 12.8168C65.0934 13.2448 65.6379 13.4588 66.2956 13.4588C67.1582 13.4588 67.8105 13.0629 68.2525 12.2712L70.2095 13.3304C69.8968 14.015 69.3955 14.5499 68.7054 14.9351C68.0262 15.3202 67.2282 15.5128 66.3118 15.5128ZM77.4007 14.9672C77.1527 15.149 76.8454 15.2881 76.4788 15.3844C76.123 15.47 75.7456 15.5128 75.3467 15.5128C74.3116 15.5128 73.5083 15.2507 72.9369 14.7265C72.3762 14.2022 72.0958 13.432 72.0958 12.4157V8.86931H70.7535V6.94365H72.0958V4.84149H74.6188V6.94365H76.7861V8.86931H74.6188V12.3836C74.6188 12.7473 74.7106 13.0308 74.8938 13.2341C75.0879 13.4266 75.3575 13.5229 75.7025 13.5229C76.1014 13.5229 76.4411 13.4159 76.7214 13.202L77.4007 14.9672ZM78.8166 6.75108H81.3401V15.3844H78.8166V6.75108ZM80.0788 5.54756C79.6151 5.54756 79.2376 5.41383 78.9461 5.14638C78.6553 4.87893 78.5096 4.54729 78.5096 4.15146C78.5096 3.75563 78.6553 3.42399 78.9461 3.15655C79.2376 2.88909 79.6151 2.75537 80.0788 2.75537C80.5424 2.75537 80.9192 2.88375 81.2107 3.14049C81.5014 3.39725 81.6472 3.71819 81.6472 4.10332C81.6472 4.52054 81.5014 4.86822 81.2107 5.14638C80.9192 5.41383 80.5424 5.54756 80.0788 5.54756ZM92.3181 6.75108L88.6464 15.3844H86.043L82.3875 6.75108H84.9917L87.4013 12.6243L89.8923 6.75108H92.3181ZM101.634 11.0998C101.634 11.1319 101.618 11.3566 101.586 11.7738H95.0029C95.1215 12.3087 95.4022 12.7313 95.8441 13.0415C96.286 13.3518 96.8357 13.5068 97.4939 13.5068C97.9467 13.5068 98.3452 13.4427 98.6902 13.3143C99.046 13.1752 99.3755 12.9613 99.6771 12.6725L101.019 14.1167C100.2 15.0474 99.0034 15.5128 97.4288 15.5128C96.448 15.5128 95.5797 15.3255 94.8254 14.9511C94.0703 14.566 93.488 14.0365 93.0787 13.3625C92.6685 12.6885 92.4639 11.9235 92.4639 11.0678C92.4639 10.2226 92.6631 9.463 93.0624 8.78908C93.4717 8.10439 94.0268 7.57483 94.7277 7.20039C95.4394 6.81527 96.2325 6.6227 97.1055 6.6227C97.9575 6.6227 98.7281 6.80457 99.4181 7.1683C100.108 7.53204 100.648 8.05623 101.035 8.74092C101.435 9.41492 101.634 10.2012 101.634 11.0998ZM97.1218 8.51623C96.5504 8.51623 96.0705 8.67669 95.6821 8.99769C95.2944 9.31862 95.0572 9.75723 94.9704 10.3135H99.2569C99.17 9.76792 98.9328 9.33462 98.5452 9.01369C98.1568 8.68208 97.6823 8.51623 97.1218 8.51623ZM108.392 4.15146C109.395 4.15146 110.263 4.31728 110.996 4.64892C111.74 4.98056 112.312 5.45127 112.71 6.06106C113.11 6.67085 113.309 7.39296 113.309 8.22739C113.309 9.05116 113.11 9.77331 112.71 10.3938C112.312 11.0035 111.74 11.4742 110.996 11.8059C110.263 12.1268 109.395 12.2873 108.392 12.2873H106.112V15.3844H103.491V4.15146H108.392ZM108.246 10.1691C109.034 10.1691 109.632 10.0033 110.042 9.67162C110.452 9.32931 110.657 8.84792 110.657 8.22739C110.657 7.59622 110.452 7.11482 110.042 6.78317C109.632 6.44084 109.034 6.26967 108.246 6.26967H106.112V10.1691H108.246ZM118.432 6.6227C119.78 6.6227 120.815 6.94365 121.538 7.58552C122.259 8.21669 122.621 9.17416 122.621 10.4579V15.3844H120.26V14.3092C119.786 15.1116 118.901 15.5128 117.607 15.5128C116.939 15.5128 116.356 15.4005 115.86 15.1758C115.375 14.9511 115.004 14.6408 114.745 14.2451C114.486 13.8492 114.356 13.3999 114.356 12.8971C114.356 12.0948 114.659 11.4635 115.262 11.0035C115.877 10.5435 116.82 10.3135 118.092 10.3135H120.098C120.098 9.76792 119.931 9.35069 119.596 9.06185C119.262 8.76231 118.761 8.61254 118.092 8.61254C117.629 8.61254 117.171 8.68739 116.718 8.83723C116.276 8.97623 115.898 9.16885 115.586 9.41493L114.68 7.66576C115.154 7.33412 115.721 7.07737 116.378 6.8955C117.046 6.71364 117.731 6.6227 118.432 6.6227ZM118.238 13.8278C118.669 13.8278 119.052 13.7315 119.386 13.539C119.72 13.3357 119.958 13.0415 120.098 12.6564V11.7738H118.368C117.333 11.7738 116.815 12.1108 116.815 12.7848C116.815 13.1057 116.939 13.3625 117.187 13.555C117.446 13.7369 117.796 13.8278 118.238 13.8278ZM133.383 6.75108L129.453 15.9139C129.054 16.9088 128.558 17.6095 127.965 18.0161C127.383 18.4226 126.676 18.6259 125.846 18.6259C125.393 18.6259 124.946 18.5564 124.504 18.4173C124.062 18.2782 123.701 18.0856 123.42 17.8396L124.342 16.0584C124.536 16.2295 124.757 16.3632 125.006 16.4595C125.264 16.5558 125.517 16.6039 125.765 16.6039C126.11 16.6039 126.391 16.5184 126.606 16.3472C126.822 16.1868 127.016 15.9139 127.189 15.5288L127.221 15.4485L123.453 6.75108H126.057L128.499 12.6082L130.957 6.75108H133.383Z" fill="#232323"/>
<path d="M6.4965 8.46161L6.1008 7.69238H16.3887L15.9931 8.46161H6.4965Z" fill="#232323" stroke="#232323" stroke-width="0.1"/>
<path d="M10.8539 7.08891L11.6611 7.08887L11.6293 13.9211H10.854L10.8539 7.08891Z" fill="#232323" stroke="#232323" stroke-width="0.1"/>
</svg>
