<svg width="130" height="26" viewBox="0 0 130 26" fill="none" xmlns="http://www.w3.org/2000/svg">
<path d="M5.86517 13L2.94667 15.9196L0 13L2.94558 10.0544L5.86517 13ZM13 5.86517L18.0267 10.8918L20.9733 7.94733L13 0L5.02667 7.97333L7.97333 10.9178L13 5.86517ZM23.0544 10.0544L20.1348 13L23.0804 15.9456L26.0249 13L23.0544 10.0544ZM13 20.1348L7.97333 15.0822L5.02667 18.0278L13 26L20.9733 18.0267L18.0267 15.0822L13 20.1348ZM13 15.9207L15.9456 12.974L13 10.0555L10.0544 13L13 15.9196V15.9207ZM43.9768 16.224V16.1742C43.9768 14.2697 42.9607 13.3044 41.3108 12.6696C42.3258 12.1117 43.1892 11.1962 43.1892 9.59725V9.54742C43.1892 7.3125 41.3866 5.86517 38.4919 5.86517H31.8652V20.1099H38.6447C41.8687 20.1348 43.9768 18.8143 43.9768 16.2251V16.224ZM40.066 10.1313C40.066 11.1973 39.2026 11.6285 37.8062 11.6285H34.9126V8.60708H38.0098C39.3304 8.60708 40.066 9.14008 40.066 10.0804V10.1313ZM40.8536 15.8188C40.8536 16.8848 40.0162 17.368 38.6436 17.368H34.9126V14.2437H38.5428C40.1429 14.2437 40.8536 14.8287 40.8536 15.7928V15.8188ZM50.5527 20.1348V5.86517H47.4045V20.1099H50.5527V20.1348ZM67.4126 20.1348V5.86517H64.3142V14.651L57.6366 5.86517H54.7419V20.1099H57.8403V11.0706L64.7465 20.1348H67.4115H67.4126ZM84.7784 20.1348L78.6608 5.78933H75.7673L69.6475 20.1348H72.8726L74.1672 16.9357H80.1851L81.4797 20.1348H84.7806H84.7784ZM79.066 14.1678H75.283L77.1875 9.54742L79.066 14.1678ZM99.7349 20.1348V5.86517H96.6366V14.651L89.9589 5.86517H87.0642V20.1099H90.1626V11.0706L97.0688 20.1348H99.7338H99.7349ZM115.908 17.8241L113.903 15.8188C112.785 16.8339 111.795 17.4937 110.145 17.4937C107.707 17.4937 106.006 15.4624 106.006 13.0249V12.9491C106.006 10.5116 107.732 8.50633 110.145 8.50633C111.566 8.50633 112.684 9.11517 113.801 10.1053L115.806 7.79458C114.487 6.5 112.887 5.58567 110.196 5.58567C105.829 5.58567 102.756 8.9115 102.756 12.9491V13C102.756 17.0874 105.878 20.3374 110.069 20.3374C112.811 20.3634 114.436 19.3982 115.908 17.8241ZM129.289 20.1348V17.342H121.545V14.3455H128.273V11.5527H121.545V8.658H129.188V5.86517H118.447V20.1099H129.289V20.1348Z" fill="black"/>
</svg>
