<svg width="84" height="24" viewBox="0 0 84 24" fill="none" xmlns="http://www.w3.org/2000/svg">
<path d="M60.508 3.25703L53.284 16.3649C53.13 16.6452 52.682 16.6452 52.528 16.3649L45.304 3.25703C45.234 3.12355 45.094 3.04346 44.94 3.04346H41.44C41.202 3.04346 41.048 3.28372 41.16 3.48395L52.542 23.7999C52.696 24.0802 53.116 24.0802 53.284 23.7999L64.666 3.48395C64.778 3.28372 64.624 3.04346 64.386 3.04346H60.886C60.718 3.04346 60.578 3.12355 60.508 3.25703Z" fill="#232323"/>
<path d="M64.61 20.7565L71.834 7.64858C71.988 7.36827 72.436 7.36827 72.59 7.64858L79.814 20.7565C79.884 20.89 80.024 20.9701 80.178 20.9701H83.678C83.916 20.9701 84.07 20.7298 83.958 20.5296L72.576 0.213652C72.422 -0.0666599 72.002 -0.0666599 71.834 0.213652L60.452 20.5296C60.34 20.7298 60.494 20.9701 60.732 20.9701H64.232C64.386 20.9567 64.54 20.8766 64.61 20.7565Z" fill="#232323"/>
<path d="M15.232 12.7077C16.744 11.9869 17.682 10.4252 17.682 8.51637C17.682 5.24607 15.008 3.03027 11.242 3.03027H0.42C0.182 3.03027 0 3.2038 0 3.43072V23.5998C0 23.8267 0.182 24.0002 0.42 24.0002H10.78C15.96 24.0002 18.69 21.8779 18.69 17.7133C18.69 13.6554 15.232 12.7077 15.232 12.7077ZM4.06 6.07365H10.486C12.852 6.07365 14.056 7.03472 14.056 8.82338C14.056 10.612 12.852 11.5731 10.486 11.5731H4.06C3.836 11.5731 3.64 11.3996 3.64 11.1727V6.4741C3.64 6.24718 3.822 6.07365 4.06 6.07365ZM10.57 20.9569H4.06C3.822 20.9569 3.64 20.7833 3.64 20.5564V14.9902C3.64 14.7767 3.822 14.5898 4.06 14.5898H10.57C13.678 14.5898 15.064 15.4307 15.064 17.7666C15.05 20.1293 13.706 20.9569 10.57 20.9569Z" fill="#232323"/>
<path d="M37.45 12.7077C38.962 11.9869 39.9 10.4252 39.9 8.51637C39.9 5.24607 37.226 3.03027 33.46 3.03027H22.624C22.386 3.03027 22.204 3.2038 22.204 3.43072V23.5998C22.204 23.8267 22.386 24.0002 22.624 24.0002H32.984C38.164 24.0002 40.894 21.8779 40.894 17.7133C40.908 13.6554 37.45 12.7077 37.45 12.7077ZM26.278 6.07365H32.704C35.07 6.07365 36.274 7.03472 36.274 8.82338C36.274 10.612 35.07 11.5731 32.704 11.5731H26.278C26.04 11.5731 25.858 11.3996 25.858 11.1727V6.4741C25.858 6.24718 26.04 6.07365 26.278 6.07365ZM32.774 20.9569H26.264C26.04 20.9569 25.844 20.7833 25.844 20.5564V14.9902C25.844 14.7767 26.026 14.5898 26.264 14.5898H32.774C35.882 14.5898 37.268 15.4307 37.268 17.7666C37.268 20.1293 35.91 20.9569 32.774 20.9569Z" fill="#232323"/>
</svg>
