<svg width="93" height="44" viewBox="0 0 93 44" fill="none" xmlns="http://www.w3.org/2000/svg">
<path d="M90.582 16.6613V17.688C90.582 18.7147 90.322 19.1253 89.6007 19.1253C88.9951 19.1253 88.7637 18.6853 88.7637 18.04V12.6427C88.7637 11.7627 89.1101 11.4987 89.5429 11.4987C90.2356 11.4987 90.5527 11.9093 90.5527 13.464H92.2267V12.7893C92.2267 11.2347 91.3319 9.91467 89.5722 9.91467C87.8403 9.91467 86.9748 11.1173 86.9748 12.584V17.952C86.9748 19.624 87.956 20.6213 89.3408 20.6213C90.1778 20.6213 90.582 20.328 91.1305 19.6827L91.4761 20.5333H92.3424V15.2533H89.4565V16.6613H90.582ZM83.7718 20.5333H85.3008V10.0907H83.7139V16.0747H83.6854L81.55 10.0907H79.9046V20.5333H81.4922V13.992H81.5207L83.7718 20.5333ZM82.9348 23.4667H78.202V33.9093H83.1369V32.3547H79.9917V29.2747H82.2713V27.72H79.9917V25.0213H82.9633V23.4667H82.9348ZM76.1824 20.5333H77.9428V10.0907H76.1824V20.5333ZM75.2011 20.5333L73.0658 13.992L74.9705 10.0907H73.21L71.3632 13.9627H71.3344V10.0907H69.5452V20.5333H71.3055V16.8373L71.9403 15.6933H71.9692L73.4121 20.5627H75.2011V20.5333ZM68.9681 23.32C67.1212 23.32 66.2555 24.5227 66.2555 25.9893V31.3867C66.2555 32.8533 67.1212 34.056 68.9681 34.056C70.7283 34.056 71.594 32.8533 71.594 31.3867V30.184H69.8338V31.4453C69.8338 32.12 69.6318 32.5013 68.9681 32.5013C68.2466 32.5013 68.0158 32.12 68.0158 31.3573V26.0773C68.0158 25.2853 68.2466 24.9333 68.9681 24.9333C69.4298 24.9333 69.8338 25.3147 69.8338 26.1947V27.016H71.594V26.2533C71.594 24.64 70.7283 23.32 68.9681 23.32ZM66.3998 20.5333H67.9293V10.0907H66.3421V16.0747H66.3132L64.1778 10.0907H62.533V20.5333H64.1201V13.992H64.149L66.3998 20.5333ZM61.9847 23.4667H59.503V33.9093H61.2633V29.6267C61.5807 29.6267 61.9559 29.6267 62.1867 29.5973L63.4275 33.9093H65.2167L63.7161 29.1867C64.3221 28.9227 64.957 28.2187 64.957 26.5467C64.9858 24.3173 63.9758 23.4667 61.9847 23.4667ZM63.2256 26.5467C63.2256 27.7787 62.8793 28.16 61.9269 28.16H61.2921V24.9333H61.9269C62.8504 24.9333 63.2256 25.3147 63.2256 26.5467ZM59.7915 20.5333H61.4942L59.5896 10.0907H57.4253L55.5207 20.5333H57.2233L57.5407 18.216H59.4742L59.7915 20.5333ZM59.2144 16.6613H57.8005L58.493 12.1733H58.5218L59.2144 16.6613ZM53.2122 15.0187C54.0779 14.6667 54.4242 13.728 54.4242 12.848C54.4242 11.0587 53.5873 10.0907 51.6827 10.0907H49.0568V20.5333H51.8559C53.8759 20.5333 54.6262 19.2427 54.6262 17.512C54.6262 16.1627 54.1067 15.4293 53.2122 15.0187ZM52.6639 13.024C52.6639 13.904 52.1444 14.344 51.4808 14.344H50.8459V11.528H51.5096C52.3176 11.5573 52.6639 12.056 52.6639 13.024ZM52.8659 17.4533C52.8659 18.5093 52.5196 19.0667 51.5962 19.0667H50.8459V15.84H51.4231C52.4907 15.84 52.8659 16.368 52.8659 17.4533ZM43.2277 23.4667C43.2566 22.968 43.2854 22.4987 43.2854 22C43.2854 21.5013 43.2566 21.032 43.2277 20.5333H32.6084L42.8814 17.7467C42.7082 16.7787 42.4486 15.84 42.1311 14.9013L31.8581 17.688L41.0634 12.2907C40.6305 11.4107 40.1688 10.56 39.6206 9.73867L30.4152 15.136L37.918 7.48C37.2832 6.74667 36.5906 6.04267 35.8691 5.39733L28.3375 13.024L33.6472 3.66667C32.8392 3.10933 32.0023 2.64 31.1366 2.2L25.8847 11.616L28.6261 1.17333C27.7315 0.850667 26.7792 0.616 25.827 0.410667L23.0855 10.8533V0.0586667C22.595 0.0293333 22.1333 0 21.6427 0C21.1522 0 20.6904 0.0293333 20.1998 0.0586667V14.8133C20.6616 14.7253 21.1522 14.6667 21.6427 14.6667C25.6249 14.6667 28.8569 17.952 28.8569 22C28.8569 26.048 25.6249 29.3333 21.6427 29.3333C17.6604 29.3333 14.4285 26.048 14.4285 22C14.4285 18.7733 16.5062 16.016 19.363 15.048L12.091 2.25867C11.2253 2.69867 10.3885 3.168 9.58054 3.72533L14.8902 13.0827L7.38735 5.456C6.66595 6.10133 5.97338 6.80533 5.33853 7.53867L12.8413 15.1947L3.66483 9.768C3.11655 10.5893 2.65484 11.44 2.22198 12.32L11.4274 17.7173L1.15428 14.9013C0.836854 15.8107 0.605995 16.7787 0.403997 17.7467L10.6771 20.5333H0.0577139C0.0288569 21.032 0 21.5013 0 22C0 22.4987 0.0288569 22.968 0.0577139 23.4667H10.6771L0.403997 26.2533C0.577139 27.2213 0.836854 28.16 1.15428 29.0987L11.4274 26.312L2.22198 31.7093C2.65484 32.5893 3.11655 33.44 3.66483 34.2613L12.8702 28.864L5.36739 36.4907C6.00224 37.224 6.69481 37.928 7.4162 38.5733L14.919 30.9467L9.60939 40.304C10.4173 40.8613 11.2542 41.3307 12.1199 41.7707L17.4296 32.4133L14.6593 42.8267C15.5539 43.1493 16.5062 43.384 17.4584 43.5893L20.1998 33.1467V43.9413C20.6904 43.9707 21.1522 44 21.6427 44C22.1333 44 22.595 43.9707 23.0855 43.9413V33.1467L25.827 43.5893C26.7792 43.4133 27.7027 43.1493 28.6261 42.8267L25.8847 32.384L31.1943 41.7413C32.06 41.3013 32.8969 40.832 33.7049 40.2747L28.3952 30.9173L35.9269 38.544C36.6483 37.8987 37.3409 37.1947 37.9757 36.4613L30.473 28.8347L39.6783 34.232C40.2266 33.4107 40.6883 32.56 41.1212 31.68L31.9158 26.2827L42.1888 29.0693C42.5063 28.16 42.7371 27.192 42.9391 26.224L32.6084 23.4667H43.2277ZM49.1433 25.9893V31.3867C49.1433 32.8533 50.009 34.056 51.8559 34.056C53.6162 34.056 54.4819 32.8533 54.4819 31.3867V30.184H52.7216V31.4453C52.7216 32.12 52.5196 32.5013 51.8559 32.5013C51.1345 32.5013 50.9037 32.12 50.9037 31.3573V26.0773C50.9037 25.2853 51.1345 24.9333 51.8559 24.9333C52.3176 24.9333 52.7216 25.3147 52.7216 26.1947V27.016H54.4819V26.2533C54.4819 24.6987 53.6162 23.3787 51.8559 23.3787C50.009 23.32 49.1433 24.5227 49.1433 25.9893ZM57.9159 23.4667H56.1556V33.9093H57.9159V23.4667ZM74.7105 23.4667H72.9503V33.9093H77.4807V32.3547H74.7105V23.4667Z" fill="#232323"/>
</svg>
