<svg width="126" height="23" viewBox="0 0 126 23" fill="none" xmlns="http://www.w3.org/2000/svg">
<path d="M16.6341 10.2857C16.5813 9.49445 16.3701 8.70325 15.9476 8.01753L12.3568 1.74061C12.0927 1.26588 11.8815 0.73841 11.7759 0.210938L11.6175 0.474674C10.7198 2.00434 10.7198 3.95599 11.6175 5.48566L14.5218 10.4967C15.4195 12.0263 15.4195 13.978 14.5218 15.5076L14.3634 15.7714C14.2578 15.2439 14.0466 14.7164 13.7825 14.2417L11.1422 9.6527L9.45239 6.69885C9.18836 6.22412 8.97713 5.69665 8.87152 5.16918L8.7131 5.43292C7.81538 6.96259 7.81538 8.86149 8.7131 10.4439L11.6175 15.4549C12.5152 16.9846 12.5152 18.9362 11.6175 20.4659L11.459 20.7296C11.3534 20.2021 11.1422 19.6747 10.8782 19.1999L7.23451 12.923C6.75925 12.0791 6.54802 11.1296 6.54802 10.1802C2.69314 11.1824 0 13.345 0 15.8241C0 19.3054 5.17505 22.101 11.5647 22.101C17.9543 22.101 23.1293 19.3054 23.1293 15.8241C23.1821 13.4505 20.5418 11.2879 16.6341 10.2857ZM27.5651 20.9934C27.6179 20.0967 27.7235 19.5164 27.9875 18.778C29.2021 19.3582 30.7863 19.6219 31.948 19.6219C33.9547 19.6219 35.1164 18.989 35.1164 17.6703C35.1164 16.4043 34.2715 15.8241 32.2649 14.9274L31.1559 14.5054C29.0965 13.6087 27.7235 12.4483 27.7235 10.1802C27.7235 7.70105 29.4661 6.11863 32.9514 6.11863C34.3771 6.11863 35.6973 6.32962 36.9118 6.7516C36.859 7.59555 36.7006 8.28127 36.4894 8.91424C35.3276 8.49226 33.9019 8.28127 32.8985 8.28127C30.9975 8.28127 30.1526 9.01973 30.1526 10.1802C30.1526 11.2879 30.9975 11.9736 32.5289 12.6065L33.6906 13.0813C36.4366 14.2417 37.5983 15.5076 37.5983 17.6175C37.5983 20.0967 35.6973 21.8373 32.0008 21.8373C30.2582 21.8373 28.7796 21.5736 27.5651 20.9934ZM49.2686 10.6021V21.4681H47.0507L46.9451 20.1494C46.3114 21.0989 45.4137 21.7318 43.8823 21.7318C41.0308 21.7318 39.0769 19.6219 39.0769 15.9824C39.0769 12.1846 41.1364 9.96918 45.1497 9.96918C46.7339 10.0219 48.0541 10.1802 49.2686 10.6021ZM46.8923 18.989V12.1846C46.417 12.0791 45.8362 12.0791 45.1497 12.0791C42.6678 12.0791 41.506 13.6087 41.506 16.0351C41.506 18.2505 42.4037 19.8329 44.516 19.8329C45.5193 19.7802 46.2586 19.4637 46.8923 18.989ZM61.5197 14.189V21.4681H59.1434V14.6109C59.1434 12.8703 58.5626 12.0791 56.1863 12.0791C55.6054 12.0791 54.9717 12.1318 54.2852 12.2373V21.4681H51.9089V10.6021C53.4403 10.2329 55.1301 9.96918 56.2391 9.96918C60.2524 10.0219 61.5197 11.5516 61.5197 14.189ZM68.1734 19.7274C68.8599 19.7274 69.5464 19.6219 70.0216 19.4109C69.9688 20.0439 69.8632 20.7824 69.7576 21.4153C69.1239 21.6791 68.3846 21.7846 67.7509 21.7846C65.4274 21.7846 63.9489 20.7296 63.9489 18.0923V6.6461C64.6881 6.38237 65.5859 6.27687 66.3252 6.27687V10.3912H70.1272C70.0744 11.1296 70.0216 11.8153 69.916 12.4483H66.3252V17.7758C66.3252 19.1472 67.0116 19.7274 68.1734 19.7274ZM81.0054 10.6021V21.4681H78.7875L78.6819 20.1494C78.0482 21.0989 77.1505 21.7318 75.6191 21.7318C72.7676 21.7318 70.8137 19.6219 70.8137 15.9824C70.8137 12.1846 72.8732 9.96918 76.8865 9.96918C78.4707 10.0219 79.738 10.1802 81.0054 10.6021ZM78.5763 18.989V12.1846C78.101 12.0791 77.5202 12.0791 76.8337 12.0791C74.3518 12.0791 73.19 13.6087 73.19 16.0351C73.19 18.2505 74.0877 19.8329 76.2 19.8329C77.2033 19.7802 77.9954 19.4637 78.5763 18.989ZM93.2566 14.189V21.4681H90.8274V14.6109C90.8274 12.8703 90.2466 12.0791 87.8703 12.0791C87.2894 12.0791 86.6557 12.1318 85.9692 12.2373V21.4681H83.5929V10.6021C85.1243 10.2329 86.8141 9.96918 87.9231 9.96918C91.9364 10.0219 93.2566 11.5516 93.2566 14.189ZM105.349 6.27687V21.4681H103.131L103.026 20.0967C102.392 21.0988 101.494 21.7318 99.9102 21.7318C97.0586 21.7318 95.1048 19.6219 95.1048 15.9824C95.1048 12.1846 97.1642 9.96918 101.178 9.96918C101.811 9.96918 102.392 10.0219 102.973 10.1274V6.54061C103.712 6.32962 104.557 6.27687 105.349 6.27687ZM102.973 18.989V12.2901C102.339 12.1846 101.706 12.0791 101.072 12.0791C98.6956 12.0791 97.5867 13.556 97.5867 16.0351C97.5867 18.2505 98.4844 19.8329 100.597 19.8329C101.547 19.7802 102.339 19.4637 102.973 18.989ZM117.389 16.8263H109.732C110.049 18.778 111.158 19.6747 113.323 19.6747C114.643 19.6747 115.963 19.4109 117.125 18.8307C117.02 19.4637 116.914 20.3076 116.756 20.9934C115.647 21.4681 114.538 21.6791 113.217 21.6791C109.204 21.6791 107.303 19.4637 107.303 15.7714C107.303 12.5538 108.782 9.96918 112.584 9.96918C116.016 9.96918 117.495 12.1846 117.495 14.9274C117.495 15.6659 117.495 16.1934 117.389 16.8263ZM109.732 14.8219H115.118C115.118 13.0285 114.168 11.9736 112.531 11.9736C110.788 12.0263 109.891 12.9758 109.732 14.8219ZM125.785 10.1274C125.785 10.8659 125.68 11.7098 125.574 12.1846C124.993 12.1318 124.465 12.0791 123.779 12.0791C123.198 12.0791 122.617 12.1318 122.036 12.1846V21.4681H119.66V10.6021C120.663 10.2329 122.406 9.96918 123.726 9.96918C124.412 10.0219 125.257 10.0219 125.785 10.1274Z" fill="#232323"/>
</svg>
