<svg width="101" height="22" viewBox="0 0 101 22" fill="none" xmlns="http://www.w3.org/2000/svg">
<g clip-path="url(#clip0_812_12409)">
<path d="M21.0812 7.58834C21.1845 8.62673 21.1336 9.49559 21.063 10.2797C20.9446 11.5936 20.7168 12.3799 20.388 13.2217C20.0486 14.0935 19.6333 14.9251 19.1875 15.6273L19.161 15.6697C19.0182 15.894 18.9134 16.0584 18.8542 16.1352C18.8443 16.1242 18.833 16.1125 18.82 16.0994C18.7661 16.0453 18.6857 15.9642 18.5611 15.8451C18.3789 15.6697 17.8687 15.0281 17.7251 14.8308C17.5983 14.6583 17.3197 14.2506 17.1686 13.9415L17.0911 13.7829L16.9484 13.891C16.7965 14.0072 16.7077 14.2089 16.7115 14.4325C16.7145 14.6291 16.7616 14.8571 16.8854 15.2736C17.0213 15.7281 17.2589 16.2711 17.5353 16.7629C17.5687 16.8235 17.6029 16.8827 17.6348 16.9375C17.8254 17.2664 17.899 17.4176 17.8087 17.4805C17.7942 17.4907 17.7768 17.4922 17.7669 17.4922C17.6538 17.4922 17.4457 17.3884 17.2088 17.2145C16.9985 17.0603 16.4351 16.6014 15.7525 15.6843C15.2377 14.9901 14.8292 14.3171 14.4275 13.5016L14.3683 13.3817C14.3683 13.3817 14.2817 13.4109 14.202 13.4584C14.1458 13.4913 14.0988 13.5301 14.0661 13.5878C13.9879 13.723 13.9628 13.9013 13.9894 14.1044C14.0517 14.5926 14.3493 15.3379 14.5893 15.8758C14.9947 16.7841 15.7404 17.8057 16.2946 18.5028C16.3159 18.5298 16.3417 18.5583 16.3675 18.5876C16.3964 18.6212 16.4457 18.676 16.47 18.7125C16.4214 18.76 16.3083 18.8484 16.1716 18.9573L15.9674 19.1174C15.221 19.7093 14.4921 20.1857 13.606 20.6622C12.9135 21.0348 11.5042 21.7232 10.5703 21.9636C9.63562 21.7232 8.22713 21.0348 7.53465 20.6622C6.63793 20.1806 5.93178 19.718 5.17249 19.1174L4.96292 18.9529C4.82625 18.8455 4.71387 18.7564 4.66756 18.7103C4.68958 18.684 4.82321 18.5298 4.84523 18.5035C5.39876 17.8079 6.14438 16.787 6.55061 15.8765C6.78978 15.3394 7.08895 14.5962 7.15197 14.1044C7.17854 13.9013 7.15197 13.7237 7.07452 13.5892C7.03504 13.5206 6.96898 13.4636 6.89912 13.4343L6.77232 13.3832L6.7131 13.503C6.31143 14.3178 5.90217 14.9916 5.38813 15.6858C4.7078 16.6021 4.14364 17.061 3.93256 17.216C3.69946 17.3877 3.48609 17.4936 3.37448 17.4936C3.36461 17.4936 3.34714 17.4929 3.33879 17.4863L3.31829 17.4703C3.24995 17.4008 3.3274 17.2488 3.50811 16.9368C3.54 16.8813 3.57265 16.8243 3.60682 16.7644C3.88321 16.2718 4.11935 15.7289 4.25526 15.2758C4.37978 14.8578 4.42686 14.6298 4.4299 14.434C4.43369 14.2111 4.34486 14.0087 4.19224 13.8925L4.04949 13.7844L3.9728 13.9429C3.83233 14.2316 3.56278 14.6328 3.41624 14.8323C3.27121 15.0303 2.76021 15.6733 2.58026 15.8465C2.45573 15.9664 2.37525 16.0475 2.32134 16.1023C2.30843 16.1154 2.29704 16.1264 2.28717 16.1366C2.22642 16.0577 2.11633 15.8853 1.96599 15.6492C1.50737 14.9272 1.09204 14.0957 0.753393 13.2239C0.424618 12.3813 0.19683 11.595 0.0783798 10.2819C0.00700606 9.4934 -0.044626 8.62088 0.0601567 7.58834C0.165699 6.5346 0.439804 5.54005 0.832359 4.78738C1.38664 3.72268 2.0776 3.09204 2.9432 2.8582C3.16036 2.79974 3.49824 2.73032 3.88017 2.73032C4.56809 2.73032 5.11706 2.94808 5.51265 3.37776C5.73209 3.61453 5.81789 3.97551 5.73285 4.29704C5.65616 4.58569 5.44583 4.77349 5.16565 4.89991C5.09352 4.9328 5.01076 4.95253 5.01076 4.95253C5.01076 4.95253 5.01987 4.98979 5.09352 5.10525C5.3699 5.5342 5.90824 5.75927 6.6478 5.75927C6.82016 5.75927 7.00011 5.74685 7.18234 5.72273C8.23472 5.5817 8.70852 4.9423 8.88164 3.71098C8.94922 3.23015 9.01376 2.82605 8.69182 2.32621C8.46631 1.97546 7.82243 1.76865 7.35166 1.77011C6.93025 1.77231 6.70778 1.87753 6.57339 2.01272C6.56731 1.99299 6.5377 1.95938 6.53011 1.94111C6.48227 1.8315 6.43975 1.70727 6.48151 1.48512C6.53087 1.22205 6.74802 0.975791 6.86268 0.888832C7.10793 0.699568 7.38507 0.519804 7.83381 0.429191C8.04642 0.386077 8.27041 0.347347 8.52174 0.347347C8.57489 0.347347 8.75332 0.346616 8.83305 0.352462C8.86797 0.354654 8.87329 0.340039 8.89835 0.310079C9.05248 0.131045 9.2947 0.0331248 9.73585 0.0426246C10.0753 0.0499321 10.5278 0.0667393 10.8839 0.176352C11.2005 0.274272 11.3607 0.367808 11.5452 0.483266C11.7594 0.616262 11.9818 0.895408 12.0768 1.1614C12.218 1.5582 12.2992 2.05218 12.3205 2.6229C12.3448 3.75994 12.5126 4.4505 12.8436 4.86191C13.3774 5.52543 13.8338 5.66428 14.385 5.69789L14.445 5.69862C15.486 5.69862 15.8656 5.38148 16.035 5.1396C16.035 5.1396 16.1268 5.01537 16.1648 4.94449C16.0327 4.9211 15.9484 4.89114 15.9484 4.89114C15.6834 4.79541 15.4959 4.59154 15.4192 4.31677C15.3273 3.9894 15.4101 3.6306 15.6333 3.38069C16.1268 2.82897 16.8618 2.73909 17.2551 2.73397H17.2999C17.6082 2.73397 17.9089 2.77782 18.1936 2.86478C18.5816 2.98243 18.9172 3.14831 19.1921 3.35803C19.732 3.77383 20.0729 4.34162 20.309 4.78884C20.6963 5.51959 20.9856 6.56748 21.0812 7.58834Z" fill="#232323"/>
</g>
<g clip-path="url(#clip1_812_12409)">
<path d="M29.2033 16.7556H25.0543C25.5778 16.298 25.7152 14.5118 25.943 11.3667L25.9936 10.6307C26.1143 8.8467 26.2113 7.47109 26.1935 6.50977C26.1768 5.68334 26.0836 5.15236 25.8541 4.97091H30.4933C31.6012 4.97091 33.815 5.02872 33.815 7.31961C33.815 8.8467 32.3876 9.79356 31.0777 10.1302C32.9268 10.3122 34.3073 11.1986 34.3073 13.0907C34.3073 15.1376 32.3704 16.7556 29.2033 16.7556ZM29.0207 11.0621H28.1788L28.0528 12.8006C27.993 13.5628 27.9602 14.2041 27.9462 14.9711C27.9462 15.0776 28.2823 15.3051 29.08 15.3051C30.7389 15.3051 31.8372 14.484 31.8372 13.1239C31.8372 11.6102 30.5886 11.0621 29.0207 11.0621ZM29.4031 6.3888C29.1731 6.3888 28.8667 6.3888 28.572 6.41878C28.4514 7.23932 28.3749 8.03632 28.313 8.90718C28.313 8.90718 28.2682 9.656 28.2682 9.62442H28.572C30.0802 9.62442 31.4655 9.10309 31.4655 7.73122C31.4655 6.93476 30.8035 6.3888 29.4031 6.3888ZM44.0375 16.8691C43.0222 16.8691 42.9441 16.8365 42.1313 14.0579L41.8388 13.0287C41.3481 13.2615 40.474 13.3685 39.0719 13.3685H37.6591L37.4146 13.8867C37.1652 14.4337 36.569 15.5658 36.583 16.2225C36.583 16.3756 36.5991 16.5276 36.6594 16.7562H33.815C34.6337 15.9501 35.6587 14.0703 37.0866 11.0343L37.9182 9.27437C38.6712 7.68412 39.4721 5.88406 39.4721 5.62446C39.4721 5.39216 39.4107 5.1802 39.3175 4.97145H41.9008C41.9008 4.97145 42.5746 7.51712 43.1768 9.64155L43.6852 11.5005C44.5626 14.6376 45.1158 16.161 45.8494 16.7567C45.1907 16.8365 44.3585 16.8691 44.0375 16.8691ZM40.3027 7.73122L38.3803 11.8393H41.5L40.3027 7.73122ZM55.2731 17.2631C54.3957 17.2631 54.1835 17.1234 53.8905 16.7246L50.5661 12.1476C50.3076 11.7917 50.1067 11.5 49.6936 11.5H49.6176L49.5557 12.3869C49.477 13.5982 49.4329 14.5568 49.4329 15.2773C49.4447 16.0689 49.5384 16.5581 49.7555 16.7556H46.5432C47.0026 16.3472 47.1755 14.9711 47.4383 11.3667L47.4798 10.6189C47.6026 8.8467 47.6942 7.47163 47.6823 6.50977C47.6689 5.66835 47.5752 5.15183 47.343 4.97038C49.1727 4.97038 51.722 4.97038 51.722 4.97038C53.1526 4.97038 55.1186 5.21071 55.1186 7.51605C55.1186 9.41193 53.8426 10.4476 52.2633 10.9363C52.4152 11.076 52.6894 11.4245 52.859 11.6418L55.2737 14.8196C56.7791 16.7888 56.9019 16.8787 57.4384 17.1549C56.7635 17.2325 55.8575 17.2631 55.2731 17.2631ZM50.9846 6.40165C50.6911 6.40165 50.3404 6.40165 50.0609 6.43269C49.9699 6.93423 49.8923 7.80563 49.7862 9.21174L49.721 10.0366C49.8772 10.0649 50.0754 10.0821 50.2607 10.0821C51.7376 10.0821 52.7502 9.19622 52.7502 7.85433C52.7508 6.93476 52.106 6.40165 50.9846 6.40165ZM61.5879 16.9842C58.5313 16.9842 56.7635 14.484 56.7635 11.6734C56.7635 7.75959 58.8991 4.73593 62.9727 4.73593C64.2455 4.73593 64.8488 4.97091 65.8797 4.97091L65.5705 7.97637C64.9861 6.92085 64.0354 6.20093 62.7546 6.20093C60.2215 6.20093 59.19 8.92377 59.19 11.258C59.19 13.7973 60.6211 15.1847 62.5262 15.1847C63.5577 15.1847 64.4626 14.9101 65.9842 13.8524C65.3691 15.8131 63.9406 16.9842 61.5879 16.9842ZM82.5053 16.8691C81.4959 16.8691 81.4178 16.8365 80.5997 14.0579L80.311 13.0287C79.8154 13.2615 78.9434 13.3685 77.5457 13.3685H76.1307L75.8867 13.8867C75.5312 14.6655 75.053 15.5813 75.053 16.2225C75.053 16.3756 75.0713 16.5431 75.1311 16.7562H66.7382C67.2155 16.2225 67.3674 14.4979 67.5979 11.3672L67.6496 10.6195C67.7681 8.83171 67.8602 7.45664 67.8462 6.49104C67.83 5.70261 67.7525 5.19358 67.5354 4.97145H70.7828C70.3228 5.32043 70.1515 7.21096 69.9377 10.3427L69.873 11.0926C69.7992 12.2525 69.6436 13.4504 69.6436 14.6039C69.6436 15.1381 69.8596 15.2633 70.4133 15.2633C72.3808 15.2633 72.8758 15.2184 73.763 14.62C74.3199 13.6148 74.9468 12.3425 75.5625 11.0348L76.393 9.2749C77.1773 7.62364 77.9443 5.94401 77.9443 5.62499C77.9443 5.39269 77.885 5.18073 77.7913 4.97198H80.3745C80.3745 4.97198 81.4184 8.81619 81.6489 9.64209L82.1547 11.501C83.0299 14.6382 83.582 16.1615 84.3221 16.7572C83.7075 16.8365 82.8296 16.8691 82.5053 16.8691ZM78.7743 7.73122L76.8686 11.8393H79.9716L78.7743 7.73122ZM89.9485 10.4048C89.6712 10.8646 89.3184 11.4876 89.1067 11.948C88.9176 12.8156 88.8266 13.9777 88.8266 15.2623C88.8266 15.797 88.9176 16.5142 89.1632 16.7556H85.9503C86.5213 16.222 86.7513 12.9403 86.7195 11.9009C86.2886 10.4155 85.7058 8.99978 84.8122 7.27198C84.2494 6.18915 83.582 5.16521 83.17 4.97038C83.8923 4.90454 84.8122 4.86172 85.2604 4.86172C86.0624 4.86172 86.273 4.97038 86.7642 6.03339C87.5339 7.75959 88.1059 9.0608 88.4409 10.0259C89.2559 8.75356 89.8268 7.88217 90.5669 6.69497C90.7495 6.40165 90.903 6.03339 90.903 5.68334C90.903 5.41036 90.855 5.10258 90.7339 4.97091H93.9123C93.2988 5.10258 90.5324 9.42906 89.9485 10.4048ZM100.691 7.75959C100.197 6.87696 99.139 6.20093 97.9848 6.20093C96.9743 6.20093 96.0813 6.61629 96.0813 7.68305C96.0813 8.58603 97.2022 9.19675 98.3694 9.94611C99.6464 10.7399 100.967 11.7183 100.967 13.4119C100.967 15.6279 98.8019 16.9837 96.2957 16.9837C95.2653 16.9837 94.1875 16.7894 92.9772 16.3333L93.1754 13.3803C93.7614 14.5563 94.8522 15.4914 96.4648 15.4914C97.7069 15.4914 98.6322 14.894 98.6322 13.8519C98.6322 12.9703 97.8765 12.4211 96.9566 11.8682C95.0229 10.7078 93.79 9.78018 93.79 8.09359C93.79 5.57682 95.9116 4.73486 98.1076 4.73486C99.3852 4.73486 100.184 4.96984 101 4.96984L100.691 7.75959Z" fill="#232323"/>
</g>
<defs>
<clipPath id="clip0_812_12409">
<rect width="21.1395" height="21.9225" fill="white" transform="translate(3.05176e-05 0.0390625)"/>
</clipPath>
<clipPath id="clip1_812_12409">
<rect width="75.9457" height="12.5271" fill="white" transform="translate(25.0543 4.73633)"/>
</clipPath>
</defs>
</svg>
