<svg width="112" height="38" viewBox="0 0 112 38" fill="none" xmlns="http://www.w3.org/2000/svg">
<path d="M4.11396 37.0824H0V17.0889H5.69192L10.7881 28.2257C12.5673 24.3592 14.2338 20.7406 15.9164 17.0889H21.56C21.8016 17.882 21.8901 35.1409 21.6567 37.0659H17.4702C17.4058 35.7522 17.4461 34.4056 17.438 33.0672C17.43 31.704 17.438 30.3408 17.438 28.9858V24.9128L17.2287 24.8384C15.4092 28.3166 13.8393 31.9436 12.0521 35.4631H9.4919L4.35548 24.7971L4.11396 24.8549V37.0824Z" fill="#232323"/>
<path d="M58.167 21.8066H62.2246C62.2487 22.1784 62.289 22.5419 62.289 22.9055C62.2971 25.2105 62.281 27.5238 62.2971 29.8288C62.2971 30.4319 62.3615 31.0351 62.4822 31.6299C62.8606 33.464 64.4225 34.2902 66.1051 33.5466C67.4898 32.9353 68.0695 31.7703 68.0936 30.2915C68.1258 28.2839 68.1017 26.2845 68.1097 24.2769V21.8314H72.1673V37.0744H68.1661C68.1258 36.5043 68.1017 35.9921 68.0534 35.3312C67.7474 35.6038 67.5301 35.7773 67.3369 35.9839C65.8475 37.5619 64.0038 37.6693 62.1119 37.1322C60.1072 36.5622 58.8191 35.1742 58.3924 33.0509C58.2475 32.2743 58.175 31.4812 58.1831 30.6881C58.1509 27.7716 58.167 24.8635 58.167 21.8066Z" fill="#232323"/>
<path d="M74.0674 15.9077H77.8352C78.0606 16.7339 78.125 35.5047 77.9076 37.0496H74.0674V15.9077Z" fill="#232323"/>
<path d="M79.856 21.8066H83.8169C83.8733 22.3601 83.9297 22.9054 83.9941 23.5746C85.3224 22.5253 86.5703 21.5257 88.3254 21.5422V25.45C87.947 25.4665 87.5847 25.4913 87.2305 25.4913C86.047 25.5078 85.2097 26.1192 84.6301 27.1354C84.147 27.9864 83.8894 28.9613 83.9055 29.9527C83.9055 31.919 83.9055 33.8853 83.8975 35.8599V37.0991C82.5449 37.1652 81.2004 37.1652 79.8479 37.0991L79.856 21.8066Z" fill="#232323"/>
<path d="M52.3705 15.8994C52.3705 17.2461 52.3866 18.4523 52.3624 19.6585C52.3383 20.8317 52.4671 22.0131 52.2578 23.2854C52.0323 23.1285 51.9035 23.0624 51.8069 22.9632C49.6815 20.8978 45.6239 20.9639 43.2731 23.4094C41.5421 25.2104 40.9544 27.3585 41.043 29.8123C41.1316 32.456 42.2345 34.5132 44.215 36.1325C46.276 37.8179 49.6412 37.884 51.6137 35.8847C51.7908 35.7112 51.9921 35.5542 52.2819 35.3063C52.3463 35.9838 52.4027 36.5208 52.459 37.1239C53.8277 37.1322 55.1238 37.2066 56.4039 37.0826V15.8994H52.3705ZM51.8874 31.7868C50.6879 34.3149 47.4997 34.4967 45.9298 32.1834C45.4065 31.415 45.1892 30.6384 45.1892 29.4487C45.1167 28.2508 45.5273 27.0776 46.3243 26.1936C47.8137 24.5165 50.1807 24.6073 51.4768 26.4414C52.6684 28.1186 52.7569 29.961 51.8874 31.7868Z" fill="#232323"/>
<path d="M37.4041 24.1941C35.6651 22.1287 33.4028 21.4182 30.7863 21.4925C26.6079 21.6082 22.6631 25.5738 23.5164 30.8697C24.1283 34.6949 27.6626 37.6443 31.3821 37.3469H31.8249C35.0532 37.2477 37.4121 35.6532 38.66 32.6625C39.9079 29.6717 39.5536 26.7388 37.4041 24.1941ZM34.1837 32.5055C32.5655 34.4883 29.4499 34.1909 28.1779 31.9189C27.3889 30.5144 27.3486 29.0438 27.9041 27.5567C28.5562 25.8052 30.1261 24.8633 31.9376 25.1029C33.596 25.3177 34.9325 26.8049 35.1257 28.6638C35.1418 28.9281 35.1418 29.1925 35.1257 29.4569C35.1981 30.5887 34.9003 31.6297 34.1837 32.5055Z" fill="#232323"/>
<path d="M103.63 8.1484V0H86.8406V16.3771H95.1941V8.1484H103.63Z" fill="#232323"/>
<path d="M103.63 8.14844V16.3771H95.1941V24.5255H111.983V8.14844H103.63Z" fill="#232323"/>
</svg>
