<svg width="127" height="38" viewBox="0 0 127 38" fill="none" xmlns="http://www.w3.org/2000/svg">
<path d="M67.4857 17.5582H59.5078L57.4318 22.2049H54.4024L63.6234 1.87114L72.5186 22.2049H69.4409L67.4857 17.5582ZM66.3391 14.8446L63.5752 8.33927L60.6785 14.8446H66.3391ZM77.0446 1.27637V22.2049H74.329V1.27637H77.0446ZM83.2845 12.7381V22.2049H80.5689V12.7381H79.4103V10.136H80.5689V5.71236H83.2845V10.136H85.3967V12.7381H83.2845ZM90.5745 14.4357V22.2049H87.7623V3.07307H90.9486C92.5096 3.07307 93.6884 3.18459 94.485 3.40763C95.2896 3.63067 95.9977 4.05196 96.6092 4.67152C97.6793 5.74541 98.2144 7.10015 98.2144 8.73578C98.2144 10.4871 97.6431 11.8748 96.5006 12.8992C95.358 13.9235 93.8171 14.4357 91.878 14.4357H90.5745ZM90.5745 11.7592H91.6245C94.2074 11.7592 95.4988 10.739 95.4988 8.69861C95.4988 6.72429 94.1672 5.73715 91.5038 5.73715H90.5745V11.7592ZM109.258 10.136H111.986V22.2049H109.258V20.941C108.14 22.0149 106.937 22.5518 105.649 22.5518C104.024 22.5518 102.68 21.9488 101.618 20.7427C100.564 19.5119 100.037 17.9754 100.037 16.1332C100.037 14.3241 100.564 12.8166 101.618 11.6105C102.672 10.4044 103.992 9.80141 105.577 9.80141C106.945 9.80141 108.172 10.3797 109.258 11.5362V10.136ZM102.813 16.1332C102.813 17.2897 103.115 18.2315 103.718 18.9584C104.338 19.6936 105.118 20.0612 106.06 20.0612C107.065 20.0612 107.878 19.706 108.498 18.9956C109.117 18.2604 109.427 17.3269 109.427 16.1952C109.427 15.0635 109.117 14.13 108.498 13.3948C107.878 12.6761 107.073 12.3168 106.084 12.3168C105.15 12.3168 104.37 12.6803 103.742 13.4072C103.123 14.1424 102.813 15.0511 102.813 16.1332ZM119.119 19.9621L113.832 10.136H116.982L120.579 17.075L123.934 10.136H127L117.634 28.7721H114.532L119.119 19.9621Z" fill="#232323"/>
<path d="M34.9944 22.2052L4.4072 22.2052L18.7729 0.159674L34.9944 22.2052Z" fill="#232323"/>
<path d="M45.0366 22.2049L14.1388 22.2049L28.9685 0.000158749L45.0366 22.2049Z" fill="#232323"/>
</svg>
