<svg width="150" height="45" viewBox="0 0 150 45" fill="none" xmlns="http://www.w3.org/2000/svg">
<path d="M11.9367 0H19.4582L7.52153 44.9985H0L11.9367 0Z" fill="white"/>
<path d="M25.9871 44.9985V0H52.9379V7.52277H33.4781V18.7409H49.2084V26.2422H33.4781V44.9908L25.9871 44.9985Z" fill="white"/>
<path d="M56.9789 44.9985V0H74.7282C77.7531 0 80.2348 0.609494 82.1733 1.82849C84.1119 3.04749 85.5521 4.60475 86.4938 6.50028C87.4188 8.31897 87.9034 10.3316 87.908 12.3742C87.908 14.8541 87.3226 16.9585 86.1517 18.6872C85.0251 20.3872 83.3342 21.6295 81.3807 22.1922V20.6247C84.1979 21.2715 86.336 22.6154 87.795 24.6563C89.254 26.6971 89.9845 29.0195 89.9866 31.6233C89.9866 34.2916 89.4775 36.6252 88.4594 38.6241C87.457 40.6098 85.8799 42.2439 83.9358 43.3112C81.9361 44.4371 79.4651 45 76.5226 45L56.9789 44.9985ZM64.563 17.9687H74.6426C75.6412 17.9859 76.6304 17.7721 77.5337 17.3438C78.3699 16.9386 79.0716 16.2987 79.5542 15.5015C80.052 14.6878 80.301 13.6879 80.301 12.5016C80.301 10.9387 79.8036 9.63631 78.8089 8.59438C77.8142 7.55245 76.4254 7.032 74.6426 7.03302H64.563V17.9687ZM64.563 37.9056H75.5987C76.8161 37.926 78.0206 37.6527 79.1113 37.1088C80.1198 36.6039 80.9666 35.824 81.5548 34.8581C82.1453 33.8898 82.4406 32.7389 82.4406 31.4053C82.4589 30.2733 82.1914 29.1551 81.6633 28.1551C81.1391 27.1868 80.3521 26.3882 79.3938 25.8522C78.4001 25.2791 77.2089 24.9925 75.8201 24.9925H64.563V37.9056Z" fill="white"/>
<path d="M98.8276 3.26859H98.1495V41.7314H98.8276V3.26859Z" fill="white"/>
<path d="M106.988 8.8999V3.61554H107.598V8.90757L106.988 8.8999Z" fill="white"/>
<path d="M111.653 8.89992V6.33297C111.674 6.07264 111.595 5.81423 111.433 5.60986C111.342 5.52355 111.234 5.45761 111.115 5.41634C110.997 5.37506 110.871 5.3594 110.746 5.37036C110.334 5.37036 110.031 5.48243 109.839 5.70658C109.646 5.93073 109.55 6.30226 109.55 6.8181V8.89992H108.953V4.93281H109.439L109.536 5.47475H109.565C109.69 5.27477 109.868 5.11488 110.08 5.01417C110.311 4.90788 110.564 4.8554 110.818 4.86065C111.293 4.86065 111.652 4.97579 111.887 5.20608C112.122 5.43637 112.247 5.80483 112.247 6.31147V8.89992H111.653Z" fill="white"/>
<path d="M114.753 8.47618C114.856 8.4767 114.958 8.46848 115.059 8.45162C115.138 8.44077 115.216 8.42488 115.292 8.40402V8.8646C115.201 8.90314 115.105 8.92947 115.007 8.9429C114.894 8.96196 114.78 8.97222 114.666 8.97361C113.904 8.97361 113.522 8.56932 113.522 7.76075V5.39952H112.957V5.10935L113.522 4.86064L113.774 4.01318H114.12V4.93434H115.265V5.39492H114.12V7.7285C114.107 7.92696 114.167 8.12327 114.289 8.27967C114.347 8.34487 114.419 8.39631 114.499 8.43029C114.58 8.46427 114.666 8.47993 114.753 8.47618Z" fill="white"/>
<path d="M117.748 8.97206C117.495 8.98433 117.241 8.94298 117.005 8.85069C116.768 8.75839 116.553 8.61721 116.374 8.43626C116.037 8.07905 115.868 7.58316 115.868 6.94859C115.868 6.30839 116.021 5.80175 116.337 5.42408C116.491 5.23909 116.684 5.09206 116.903 4.99436C117.122 4.89666 117.361 4.8509 117.6 4.86063C117.82 4.84996 118.039 4.88835 118.241 4.97304C118.444 5.05773 118.626 5.18661 118.773 5.35038C119.074 5.71199 119.228 6.17396 119.205 6.6446V7.02382H116.487C116.499 7.49054 116.616 7.84415 116.838 8.08468C116.96 8.20843 117.107 8.30474 117.268 8.36721C117.43 8.42967 117.603 8.45687 117.776 8.447C118.209 8.44522 118.638 8.35432 119.036 8.17986V8.71414C118.843 8.80016 118.643 8.86651 118.437 8.91218C118.21 8.95579 117.979 8.97586 117.748 8.97206ZM117.586 5.36266C117.445 5.35489 117.303 5.37834 117.171 5.43138C117.039 5.48441 116.92 5.56575 116.823 5.66972C116.621 5.91213 116.504 6.21488 116.49 6.53099H118.552C118.573 6.22023 118.484 5.91194 118.301 5.66051C118.212 5.56009 118.101 5.48118 117.978 5.42962C117.854 5.37805 117.72 5.35517 117.586 5.36266Z" fill="white"/>
<path d="M122.018 4.86064C122.177 4.85876 122.335 4.87317 122.49 4.90363L122.408 5.46093C122.266 5.42674 122.121 5.4082 121.976 5.40565C121.819 5.40556 121.664 5.44066 121.522 5.50839C121.381 5.57612 121.256 5.67477 121.157 5.79715C120.926 6.06728 120.805 6.41462 120.817 6.7705V8.8999H120.219V4.9328H120.713L120.78 5.66665H120.809C120.937 5.42907 121.119 5.22464 121.339 5.06943C121.539 4.93176 121.776 4.85891 122.018 4.86064Z" fill="white"/>
<path d="M125.93 8.8999V6.33295C125.948 6.07233 125.867 5.81445 125.704 5.61137C125.612 5.52511 125.503 5.45921 125.384 5.41795C125.266 5.37668 125.14 5.36099 125.015 5.37187C124.607 5.37187 124.305 5.48395 124.108 5.70809C123.915 5.93224 123.82 6.30377 123.82 6.81962V8.90143H123.222V4.93279H123.718L123.814 5.47473H123.843C123.967 5.27475 124.146 5.11486 124.358 5.01415C124.589 4.90801 124.841 4.85554 125.096 4.86063C125.572 4.86063 125.929 4.97577 126.165 5.20606C126.401 5.43635 126.521 5.80481 126.525 6.31145V8.8999H125.93Z" fill="white"/>
<path d="M130.181 8.89989L130.062 8.33492H130.033C129.879 8.5472 129.678 8.7202 129.445 8.84002C129.213 8.93452 128.963 8.97947 128.712 8.97205C128.379 8.9895 128.052 8.87983 127.796 8.665C127.682 8.55332 127.593 8.41812 127.535 8.26867C127.478 8.11921 127.453 7.95904 127.463 7.79911C127.463 6.99873 128.1 6.57909 129.375 6.5402L130.045 6.5187V6.27153C130.065 6.02487 129.994 5.77959 129.845 5.5822C129.76 5.50176 129.659 5.44034 129.549 5.40197C129.439 5.3636 129.322 5.34915 129.205 5.35958C128.816 5.37641 128.435 5.48136 128.091 5.66664L127.906 5.20606C128.108 5.09737 128.323 5.01336 128.546 4.95581C128.773 4.89609 129.007 4.86566 129.242 4.86523C129.712 4.86523 130.061 4.97117 130.288 5.17996C130.516 5.38876 130.629 5.72652 130.629 6.19016V8.89836L130.181 8.89989ZM128.831 8.47616C129.152 8.49374 129.467 8.38341 129.708 8.16911C129.818 8.05574 129.903 7.92055 129.957 7.77223C130.012 7.6239 130.035 7.46572 130.026 7.30783V6.95011L129.428 6.97468C128.953 6.99157 128.61 7.0668 128.401 7.19883C128.297 7.26252 128.213 7.35342 128.158 7.46169C128.102 7.56996 128.078 7.69145 128.086 7.81293C128.079 7.90505 128.094 7.99747 128.127 8.08333C128.161 8.16919 128.214 8.24626 128.281 8.30882C128.438 8.42991 128.634 8.4894 128.831 8.47616Z" fill="white"/>
<path d="M133.129 8.47618C133.231 8.47657 133.333 8.46836 133.434 8.45162C133.513 8.44047 133.591 8.42458 133.668 8.40402V8.8646C133.577 8.90293 133.481 8.92924 133.382 8.9429C133.27 8.96189 133.156 8.97216 133.042 8.97361C132.278 8.97361 131.896 8.56932 131.896 7.76075V5.39952H131.331V5.10935L131.896 4.86064L132.148 4.01318H132.495V4.93434H133.645V5.39492H132.501V7.7285C132.488 7.92676 132.548 8.12305 132.669 8.27967C132.727 8.34409 132.798 8.39505 132.877 8.429C132.957 8.46294 133.043 8.47904 133.129 8.47618Z" fill="white"/>
<path d="M134.409 3.85659C134.403 3.80116 134.409 3.74516 134.426 3.69225C134.444 3.63934 134.472 3.59071 134.509 3.54954C134.578 3.48697 134.667 3.4523 134.76 3.4523C134.853 3.4523 134.942 3.48697 135.01 3.54954C135.078 3.63521 135.114 3.74124 135.114 3.85045C135.114 3.95967 135.078 4.06569 135.01 4.15136C134.978 4.18384 134.939 4.2094 134.896 4.22654C134.853 4.24367 134.807 4.25204 134.761 4.25115C134.715 4.25273 134.668 4.24469 134.625 4.22752C134.582 4.21036 134.542 4.18443 134.509 4.15136C134.474 4.11139 134.447 4.06475 134.43 4.01415C134.412 3.96354 134.405 3.90999 134.409 3.85659ZM135.056 8.89991H134.459V4.93281H135.056V8.89991Z" fill="white"/>
<path d="M139.728 6.91173C139.728 7.55807 139.575 8.06318 139.242 8.42704C139.072 8.61087 138.863 8.75491 138.631 8.84907C138.399 8.94322 138.15 8.9852 137.9 8.97205C137.57 8.97843 137.244 8.89174 136.961 8.72181C136.683 8.55203 136.462 8.30226 136.327 8.00484C136.171 7.66228 136.094 7.28849 136.102 6.91173C136.102 6.26487 136.263 5.76131 136.585 5.40104C136.907 5.04077 137.353 4.86062 137.924 4.86062C138.171 4.84935 138.417 4.89306 138.644 4.98862C138.872 5.08418 139.076 5.22922 139.241 5.41332C139.567 5.78383 139.729 6.2833 139.728 6.91173ZM136.722 6.91173C136.722 7.41837 136.824 7.80475 137.028 8.07086C137.141 8.19576 137.278 8.29557 137.431 8.36388C137.585 8.43219 137.75 8.46747 137.918 8.46747C138.086 8.46747 138.252 8.43219 138.405 8.36388C138.558 8.29557 138.696 8.19576 138.809 8.07086C139.012 7.80679 139.114 7.41991 139.114 6.9102C139.114 6.40664 139.013 6.02282 138.809 5.76182C138.701 5.62912 138.563 5.52421 138.407 5.45585C138.251 5.38748 138.081 5.35764 137.911 5.3688C137.743 5.3575 137.575 5.38674 137.421 5.45405C137.267 5.52136 137.131 5.62479 137.025 5.75568C136.822 6.01668 136.722 6.40049 136.722 6.91173Z" fill="white"/>
<path d="M143.477 8.89992V6.33297C143.498 6.07264 143.419 5.81423 143.257 5.60986C143.166 5.5236 143.057 5.4577 142.938 5.41643C142.82 5.37517 142.694 5.35947 142.569 5.37036C142.161 5.37036 141.859 5.48243 141.661 5.70658C141.471 5.93073 141.374 6.30226 141.374 6.81811V8.89992H140.777V4.93281H141.263L141.359 5.47475H141.388C141.513 5.27533 141.691 5.1156 141.903 5.01418C142.135 4.90786 142.387 4.85539 142.642 4.86065C143.116 4.86065 143.473 4.9758 143.711 5.20608C143.949 5.43637 144.069 5.80484 144.071 6.31147V8.89992H143.477Z" fill="white"/>
<path d="M147.729 8.89989L147.61 8.33492H147.581C147.427 8.5472 147.226 8.7202 146.993 8.84002C146.76 8.93482 146.511 8.97979 146.26 8.97205C145.927 8.99011 145.599 8.88037 145.344 8.665C145.229 8.55351 145.14 8.41834 145.082 8.26884C145.025 8.11933 145 7.95907 145.011 7.79911C145.011 6.99873 145.647 6.57909 146.921 6.5402L147.592 6.5187V6.27153C147.611 6.02487 147.54 5.77959 147.392 5.5822C147.307 5.50188 147.206 5.44052 147.096 5.40215C146.986 5.36378 146.869 5.34927 146.753 5.35958C146.363 5.37618 145.981 5.48114 145.637 5.66664L145.454 5.20606C145.656 5.09712 145.87 5.0131 146.092 4.95581C146.319 4.89629 146.553 4.86586 146.788 4.86523C147.259 4.86523 147.608 4.97117 147.834 5.17996C148.06 5.38876 148.175 5.72652 148.175 6.19016V8.89835L147.729 8.89989ZM146.379 8.47616C146.538 8.48536 146.697 8.46299 146.848 8.4103C146.998 8.35762 147.137 8.27566 147.256 8.16911C147.366 8.05582 147.451 7.92069 147.506 7.77237C147.561 7.62405 147.584 7.46582 147.575 7.30783V6.95011L146.976 6.97468C146.501 6.99157 146.158 7.0668 145.948 7.19883C145.845 7.26252 145.761 7.35342 145.706 7.46169C145.65 7.56996 145.625 7.69145 145.634 7.81293C145.628 7.90498 145.642 7.9972 145.676 8.08295C145.71 8.16871 145.762 8.24585 145.829 8.30882C145.986 8.42966 146.182 8.48911 146.379 8.47616Z" fill="white"/>
<path d="M150 8.8999H149.403V3.26703H150V8.8999Z" fill="white"/>
<path d="M107.598 17.9963H106.988V12.7043H109.921V13.2508H107.598V15.1868H109.781V15.7333H107.598V17.9963Z" fill="white"/>
<path d="M110.653 12.9545C110.647 12.8991 110.654 12.8432 110.671 12.7903C110.688 12.7374 110.716 12.6888 110.754 12.6475C110.787 12.6157 110.827 12.5909 110.87 12.5745C110.913 12.5582 110.959 12.5506 111.006 12.5523C111.098 12.5508 111.187 12.5855 111.255 12.649C111.322 12.735 111.358 12.8413 111.358 12.9507C111.358 13.0601 111.322 13.1663 111.255 13.2524C111.188 13.3168 111.098 13.3521 111.006 13.3506C110.959 13.3521 110.913 13.3442 110.87 13.3273C110.826 13.3104 110.787 13.2849 110.754 13.2524C110.718 13.2119 110.691 13.1648 110.673 13.1136C110.656 13.0625 110.649 13.0084 110.653 12.9545ZM111.3 17.9963H110.703V14.0292H111.3V17.9963Z" fill="white"/>
<path d="M115.268 17.9963V15.437C115.288 15.1767 115.21 14.9184 115.048 14.7139C114.957 14.6278 114.848 14.5619 114.73 14.5207C114.611 14.4794 114.486 14.4636 114.361 14.4744C113.949 14.4744 113.646 14.588 113.454 14.8122C113.261 15.0363 113.165 15.4063 113.165 15.9221V18.004H112.569V14.0292H113.055L113.153 14.5727H113.182C113.305 14.3722 113.484 14.2122 113.697 14.1121C113.928 14.0049 114.18 13.9524 114.434 13.9586C114.909 13.9586 115.265 14.0737 115.503 14.304C115.742 14.5343 115.861 14.9027 115.862 15.4094V17.9978L115.268 17.9963Z" fill="white"/>
<path d="M118.373 17.5726C118.475 17.5728 118.577 17.5651 118.678 17.5496C118.757 17.5382 118.835 17.5218 118.912 17.5004V17.961C118.821 18.0008 118.725 18.0271 118.626 18.0393C118.514 18.0583 118.4 18.0686 118.286 18.07C117.522 18.07 117.141 17.6657 117.142 16.8572V14.4959H116.575V14.2088L117.142 13.9586L117.392 13.1111H117.739V14.0323H118.883V14.4928H117.739V16.828C117.726 17.026 117.786 17.2218 117.909 17.3776C117.967 17.4426 118.039 17.4938 118.119 17.5275C118.199 17.5613 118.286 17.5766 118.373 17.5726Z" fill="white"/>
<path d="M121.363 18.0685C120.78 18.0685 120.322 17.8899 119.989 17.5327C119.651 17.175 119.483 16.6806 119.483 16.045C119.483 15.4094 119.636 14.8982 119.952 14.522C120.105 14.3366 120.299 14.1892 120.518 14.0912C120.737 13.9932 120.976 13.9473 121.215 13.9571C121.435 13.9464 121.653 13.9848 121.856 14.0695C122.059 14.1542 122.241 14.283 122.388 14.4468C122.689 14.8084 122.843 15.2704 122.82 15.741V16.1218H120.102C120.114 16.5865 120.231 16.9396 120.453 17.1811C120.575 17.3049 120.721 17.4012 120.883 17.4636C121.045 17.5261 121.218 17.5533 121.391 17.5434C121.824 17.5426 122.252 17.4527 122.649 17.2794V17.8152C122.456 17.9001 122.256 17.9659 122.051 18.0117C121.824 18.0543 121.594 18.0733 121.363 18.0685ZM121.201 14.4606C121.06 14.4529 120.918 14.4763 120.786 14.5294C120.654 14.5824 120.535 14.6637 120.438 14.7677C120.236 15.0102 120.119 15.3129 120.105 15.629H122.168C122.189 15.318 122.099 15.0098 121.916 14.7585C121.827 14.6579 121.716 14.5788 121.593 14.5273C121.469 14.4757 121.335 14.4529 121.201 14.4606Z" fill="white"/>
<path d="M125.41 18.0685C124.839 18.0685 124.397 17.8919 124.083 17.5388C123.77 17.1857 123.613 16.6857 123.613 16.0388C123.613 15.3746 123.772 14.8628 124.091 14.5036C124.41 14.1443 124.863 13.9637 125.45 13.9616C125.641 13.9616 125.832 13.9821 126.018 14.023C126.173 14.0526 126.323 14.1011 126.466 14.1674L126.281 14.6786C126.141 14.6219 125.996 14.5777 125.849 14.5466C125.713 14.5139 125.574 14.4964 125.435 14.4944C124.634 14.4944 124.233 15.0061 124.233 16.0296C124.233 16.5158 124.331 16.8899 124.526 17.1519C124.629 17.2828 124.761 17.3867 124.913 17.4546C125.064 17.5225 125.23 17.5525 125.395 17.5419C125.743 17.5383 126.087 17.4658 126.408 17.3285V17.8612C126.096 18.0088 125.754 18.0799 125.41 18.0685Z" fill="white"/>
<path d="M130.044 17.9963V15.437C130.064 15.1767 129.985 14.9184 129.824 14.7139C129.733 14.6278 129.624 14.5619 129.506 14.5207C129.387 14.4794 129.262 14.4637 129.137 14.4744C128.721 14.4744 128.417 14.588 128.22 14.8153C128.023 15.0425 127.933 15.414 127.933 15.9299V18.004H127.336V12.3665H127.933V14.0707C127.936 14.2415 127.926 14.4124 127.904 14.5819H127.941C128.063 14.3866 128.237 14.2301 128.443 14.1305C128.675 14.0179 128.93 13.9616 129.187 13.9663C129.669 13.9663 130.03 14.0814 130.272 14.3117C130.513 14.542 130.633 14.9079 130.633 15.4094V17.9978L130.044 17.9963Z" fill="white"/>
<path d="M106.988 21.8022H108.474C109.173 21.8022 109.678 21.9046 109.99 22.1093C110.302 22.314 110.457 22.6456 110.457 23.1041C110.468 23.3865 110.375 23.6631 110.196 23.881C109.996 24.0997 109.726 24.2401 109.433 24.2771V24.3139C110.232 24.45 110.631 24.8722 110.631 25.5805C110.642 25.7896 110.605 25.9983 110.522 26.1903C110.439 26.3823 110.313 26.5525 110.153 26.6874C109.836 26.9525 109.391 27.085 108.82 27.085H106.988V21.8022ZM107.598 24.0683H108.608C109.041 24.0683 109.351 23.9997 109.54 23.8625C109.728 23.7254 109.823 23.4956 109.824 23.1732C109.833 23.0475 109.809 22.9215 109.754 22.8085C109.698 22.6955 109.613 22.5998 109.507 22.5315C109.297 22.3994 108.961 22.3334 108.499 22.3334H107.598V24.0683ZM107.598 24.5887V26.5692H108.698C109.123 26.5692 109.442 26.4863 109.657 26.3205C109.768 26.226 109.856 26.1063 109.912 25.9712C109.968 25.8361 109.991 25.6896 109.979 25.5436C109.99 25.4049 109.965 25.2657 109.907 25.1393C109.85 25.0128 109.761 24.9031 109.649 24.8205C109.43 24.667 109.097 24.5887 108.648 24.5887H107.598Z" fill="white"/>
<path d="M112.237 23.1272V25.7002C112.217 25.9605 112.295 26.2188 112.457 26.4234C112.548 26.5097 112.656 26.5756 112.775 26.6169C112.893 26.6581 113.019 26.6738 113.144 26.6629C113.551 26.6629 113.853 26.5493 114.049 26.322C114.24 26.0963 114.335 25.7248 114.335 25.212V23.1272H114.934V27.0927H114.439L114.353 26.5615H114.321C114.198 26.7579 114.021 26.9137 113.811 27.0098C113.578 27.1167 113.324 27.1692 113.067 27.1634C112.588 27.1634 112.228 27.0487 111.989 26.8195C111.75 26.5902 111.631 26.2233 111.632 25.7187V23.1241L112.237 23.1272Z" fill="white"/>
<path d="M118.746 26.0119C118.753 26.1773 118.72 26.342 118.648 26.4911C118.576 26.6401 118.468 26.7688 118.335 26.8655C118.061 27.0651 117.678 27.1726 117.183 27.1726C116.762 27.194 116.341 27.1079 115.961 26.9223V26.365C116.156 26.4634 116.361 26.5396 116.572 26.5922C116.777 26.6472 116.988 26.6756 117.2 26.6767C117.45 26.6898 117.698 26.6368 117.921 26.5232C117.993 26.4801 118.054 26.4199 118.098 26.3478C118.142 26.2756 118.167 26.1938 118.172 26.1094C118.178 26.0251 118.162 25.9407 118.127 25.8638C118.092 25.7868 118.039 25.7196 117.973 25.668C117.732 25.5028 117.47 25.3721 117.194 25.2796C116.921 25.1866 116.659 25.0657 116.41 24.9188C116.27 24.8316 116.151 24.7122 116.065 24.5703C115.987 24.4298 115.947 24.2708 115.951 24.1097C115.946 23.9588 115.98 23.8093 116.049 23.675C116.117 23.5408 116.219 23.4262 116.343 23.3421C116.663 23.1406 117.036 23.0431 117.412 23.0627C117.841 23.0633 118.265 23.1515 118.659 23.3221L118.446 23.8103C118.109 23.6599 117.746 23.5764 117.377 23.5647C117.155 23.551 116.934 23.5971 116.736 23.6983C116.67 23.7345 116.615 23.7881 116.577 23.8533C116.539 23.9184 116.52 23.9928 116.52 24.0683C116.517 24.1653 116.546 24.2607 116.601 24.34C116.672 24.4294 116.761 24.5022 116.863 24.5534C117.087 24.6659 117.318 24.7638 117.554 24.8466C118.022 25.0171 118.338 25.1905 118.503 25.364C118.664 25.54 118.752 25.7724 118.746 26.0119Z" fill="white"/>
<path d="M119.668 22.0509C119.662 21.9955 119.668 21.9395 119.686 21.8866C119.703 21.8337 119.731 21.785 119.769 21.7439C119.837 21.6813 119.927 21.6466 120.019 21.6466C120.112 21.6466 120.201 21.6813 120.27 21.7439C120.308 21.7846 120.337 21.8331 120.355 21.8861C120.373 21.939 120.379 21.9953 120.374 22.0509C120.379 22.1066 120.372 22.1626 120.354 22.2155C120.336 22.2684 120.307 22.317 120.27 22.358C120.237 22.3905 120.198 22.416 120.155 22.4331C120.113 22.4503 120.067 22.4587 120.021 22.4578C119.974 22.4593 119.928 22.4513 119.884 22.4341C119.841 22.417 119.802 22.3911 119.769 22.358C119.732 22.3165 119.704 22.2679 119.686 22.215C119.669 22.1622 119.663 22.1063 119.668 22.0509ZM120.316 27.0927H119.718V23.1271H120.316V27.0927Z" fill="white"/>
<path d="M124.283 27.0927V24.5273C124.303 24.2665 124.225 24.0077 124.063 23.8027C123.972 23.717 123.863 23.6516 123.745 23.6107C123.626 23.5697 123.501 23.554 123.376 23.5647C122.969 23.5647 122.666 23.6768 122.469 23.9009C122.276 24.1251 122.18 24.4966 122.18 25.0125V27.0927H121.58V23.1272H122.066L122.163 23.6691H122.192C122.316 23.4691 122.495 23.3092 122.707 23.2085C122.938 23.1019 123.19 23.0494 123.445 23.055C123.919 23.055 124.276 23.1701 124.514 23.4004C124.752 23.6307 124.872 23.9992 124.873 24.5058V27.0927H124.283Z" fill="white"/>
<path d="M127.776 27.1664C127.522 27.1788 127.269 27.1375 127.032 27.0452C126.795 26.9529 126.58 26.8117 126.401 26.6306C126.063 26.2734 125.894 25.7775 125.894 25.1429C125.894 24.5084 126.051 24.0002 126.365 23.6184C126.518 23.4336 126.711 23.2866 126.93 23.1889C127.149 23.0912 127.387 23.0454 127.626 23.055C127.846 23.0444 128.065 23.0829 128.268 23.1675C128.471 23.2522 128.653 23.381 128.801 23.5447C129.101 23.9067 129.255 24.3684 129.233 24.839V25.2182H126.514C126.527 25.6788 126.643 26.038 126.866 26.279C126.988 26.4028 127.134 26.4991 127.296 26.5616C127.457 26.624 127.631 26.6512 127.803 26.6414C128.237 26.6397 128.666 26.5482 129.063 26.3727V26.9085C128.867 26.9949 128.662 27.0608 128.452 27.105C128.23 27.1485 128.003 27.1691 127.776 27.1664ZM127.614 23.557C127.472 23.5496 127.331 23.5732 127.199 23.6262C127.067 23.6792 126.948 23.7604 126.85 23.8641C126.648 24.1065 126.531 24.4093 126.518 24.7254H128.581C128.602 24.4144 128.512 24.106 128.329 23.8549C128.24 23.7542 128.129 23.6751 128.005 23.6235C127.882 23.5719 127.748 23.5492 127.614 23.557Z" fill="white"/>
<path d="M132.791 26.0119C132.799 26.1773 132.765 26.342 132.694 26.4911C132.622 26.6401 132.514 26.7688 132.381 26.8655C132.107 27.0651 131.722 27.1726 131.229 27.1726C130.807 27.1936 130.387 27.1075 130.007 26.9223V26.365C130.202 26.4635 130.407 26.5397 130.618 26.5922C130.823 26.6472 131.034 26.6756 131.246 26.6767C131.495 26.6896 131.744 26.6366 131.967 26.5232C132.039 26.4801 132.1 26.4199 132.144 26.3478C132.188 26.2756 132.213 26.1938 132.218 26.1094C132.223 26.0251 132.208 25.9407 132.173 25.8638C132.138 25.7868 132.085 25.7196 132.019 25.668C131.778 25.5029 131.515 25.3722 131.238 25.2796C130.966 25.186 130.703 25.0651 130.455 24.9188C130.314 24.831 130.196 24.7117 130.11 24.5703C130.033 24.4293 129.994 24.2705 129.997 24.1097C129.992 23.9588 130.026 23.8093 130.094 23.675C130.163 23.5408 130.264 23.4262 130.389 23.3421C130.708 23.1406 131.082 23.0431 131.458 23.0627C131.887 23.0633 132.311 23.1515 132.704 23.3221L132.492 23.8103C132.155 23.66 131.792 23.5766 131.423 23.5647C131.201 23.5506 130.98 23.5968 130.782 23.6983C130.715 23.7344 130.66 23.7879 130.622 23.8531C130.584 23.9183 130.564 23.9926 130.565 24.0683C130.562 24.1655 130.591 24.2609 130.647 24.34C130.718 24.4294 130.807 24.5022 130.908 24.5534C131.132 24.6657 131.363 24.7636 131.599 24.8466C132.066 25.0171 132.382 25.1905 132.547 25.364C132.71 25.5392 132.798 25.772 132.791 26.0119Z" fill="white"/>
<path d="M136.309 26.0119C136.316 26.1773 136.283 26.342 136.211 26.4911C136.139 26.6401 136.031 26.7688 135.898 26.8655C135.624 27.0651 135.241 27.1726 134.746 27.1726C134.325 27.1936 133.904 27.1075 133.524 26.9223V26.365C133.719 26.4635 133.924 26.5397 134.135 26.5922C134.34 26.6472 134.551 26.6756 134.763 26.6767C135.013 26.6896 135.261 26.6366 135.484 26.5232C135.556 26.4801 135.617 26.4199 135.661 26.3478C135.705 26.2756 135.73 26.1938 135.735 26.1094C135.741 26.0251 135.725 25.9407 135.69 25.8638C135.655 25.7868 135.602 25.7196 135.536 25.668C135.295 25.5029 135.032 25.3722 134.755 25.2796C134.483 25.1864 134.221 25.0655 133.973 24.9188C133.832 24.8316 133.714 24.7122 133.627 24.5703C133.55 24.4293 133.511 24.2705 133.514 24.1097C133.509 23.9588 133.543 23.8093 133.612 23.675C133.68 23.5408 133.782 23.4262 133.906 23.3421C134.226 23.1406 134.599 23.0431 134.975 23.0627C135.404 23.0633 135.828 23.1515 136.222 23.3221L136.009 23.8103C135.672 23.66 135.309 23.5766 134.94 23.5647C134.718 23.5506 134.497 23.5968 134.299 23.6983C134.233 23.7345 134.178 23.7881 134.14 23.8533C134.102 23.9184 134.083 23.9928 134.083 24.0683C134.08 24.1653 134.109 24.2607 134.164 24.34C134.235 24.4294 134.324 24.5022 134.426 24.5534C134.649 24.6657 134.88 24.7636 135.116 24.8466C135.585 25.0171 135.901 25.1905 136.066 25.364C136.227 25.54 136.315 25.7724 136.309 26.0119Z" fill="white"/>
</svg>
